<svg width="28" height="28" viewBox="0 0 28 28" fill="none" xmlns="http://www.w3.org/2000/svg">
<g clip-path="url(#clip0_660_361)">
<path d="M19.4604 17.1271C19.4604 16.6774 19.079 16.3335 18.5802 16.3335C18.0814 16.3335 17.7 16.6774 17.7 17.1271C17.7 20.2224 14.9128 22.7356 11.4802 22.7356C8.04753 22.7356 5.26033 20.2224 5.26033 17.1271C5.26033 16.6774 4.87893 16.3335 4.38017 16.3335C3.88141 16.3335 3.5 16.6774 3.5 17.1271C3.5 20.8044 6.55125 23.8996 10.6 24.2965V26.4129H7.40208C6.90331 26.4129 6.52191 26.7568 6.52191 27.2065C6.52191 27.6562 6.90331 28.0002 7.40208 28.0002H15.5583C16.0571 28.0002 16.4385 27.6562 16.4385 27.2065C16.4385 26.7568 16.0571 26.4129 15.5583 26.4129H12.3604V24.2965C16.4091 23.8996 19.4604 20.8044 19.4604 17.1271Z" fill="#1ECF30"/>
<path d="M11.3342 0C8.30359 0 5.83301 2.59901 5.83301 5.78713V15.1782C5.83301 18.401 8.30359 20.9653 11.3342 21C14.3648 21 16.8353 18.401 16.8353 15.2129V5.78713C16.8353 2.59901 14.3648 0 11.3342 0Z" fill="#1ECF30"/>
<circle cx="17.5" cy="7" r="7" fill="white"/>
<g clip-path="url(#clip1_660_361)">
<path d="M17.5003 1.1665C14.2837 1.1665 11.667 3.78321 11.667 6.99984C11.667 10.2165 14.2837 12.8332 17.5003 12.8332C20.717 12.8332 23.3337 10.2165 23.3337 6.99984C23.3337 3.78321 20.717 1.1665 17.5003 1.1665Z" fill="#1ECF30"/>
<g clip-path="url(#clip2_660_361)">
<path d="M20.375 6.375H18.25C18.181 6.375 18.125 6.31903 18.125 6.25V4.125C18.125 3.77985 17.8452 3.5 17.5 3.5C17.1548 3.5 16.875 3.77985 16.875 4.125V6.25C16.875 6.31903 16.819 6.375 16.75 6.375H14.625C14.2798 6.375 14 6.65485 14 7C14 7.34515 14.2798 7.625 14.625 7.625H16.75C16.819 7.625 16.875 7.68097 16.875 7.75V9.875C16.875 10.2202 17.1548 10.5 17.5 10.5C17.8452 10.5 18.125 10.2202 18.125 9.875V7.75C18.125 7.68097 18.181 7.625 18.25 7.625H20.375C20.7202 7.625 21 7.34515 21 7C21 6.65485 20.7202 6.375 20.375 6.375Z" fill="white"/>
</g>
</g>
</g>
<defs>
<clipPath id="clip0_660_361">
<rect width="28" height="28" fill="white"/>
</clipPath>
<clipPath id="clip1_660_361">
<rect width="11.6667" height="11.6667" fill="white" transform="translate(11.667 1.1665)"/>
</clipPath>
<clipPath id="clip2_660_361">
<rect width="7" height="7" fill="white" transform="translate(14 3.5)"/>
</clipPath>
</defs>
</svg>
