<svg width="21" height="21" viewBox="0 0 21 21" fill="none" xmlns="http://www.w3.org/2000/svg">
<path d="M13.1252 16.6249C13.01 16.6256 12.8959 16.6035 12.7893 16.5599C12.6827 16.5164 12.5857 16.4522 12.5039 16.3711L7.25395 11.1211C7.09099 10.9572 6.99951 10.7354 6.99951 10.5043C6.99951 10.2731 7.09099 10.0513 7.25395 9.8874L12.5039 4.6374C12.6713 4.49405 12.8866 4.41915 13.1069 4.42765C13.3271 4.43616 13.536 4.52745 13.6918 4.68328C13.8476 4.83912 13.9389 5.04801 13.9474 5.26823C13.9559 5.48845 13.881 5.70376 13.7377 5.87115L9.10895 10.4999L13.7377 15.1286C13.8606 15.2505 13.9445 15.4061 13.979 15.5757C14.0135 15.7452 13.9969 15.9212 13.9313 16.0814C13.8657 16.2415 13.7542 16.3787 13.6107 16.4754C13.4672 16.5721 13.2982 16.6242 13.1252 16.6249Z" fill="#AEB8B7"/>
</svg>
