<svg width="32" height="32" viewBox="0 0 32 32" fill="none" xmlns="http://www.w3.org/2000/svg">
<path d="M27.25 3.75H22.5625V2.8125C22.5625 1.26169 21.3008 0 19.75 0H12.25C10.6992 0 9.4375 1.26169 9.4375 2.8125V3.75H4.75C3.19919 3.75 1.9375 5.01169 1.9375 6.5625C1.9375 7.808 2.75156 8.86631 3.87531 9.23506L5.5475 29.421C5.66794 30.8672 6.89906 32 8.35025 32H23.6497C25.101 32 26.3321 30.8672 26.4526 29.4206L28.1247 9.235C29.2484 8.86631 30.0625 7.808 30.0625 6.5625C30.0625 5.01169 28.8008 3.75 27.25 3.75ZM11.3125 2.8125C11.3125 2.29556 11.7331 1.875 12.25 1.875H19.75C20.2669 1.875 20.6875 2.29556 20.6875 2.8125V3.75H11.3125V2.8125ZM24.584 29.2654C24.5438 29.7474 24.1335 30.125 23.6497 30.125H8.35025C7.86656 30.125 7.45619 29.7474 7.41612 29.2658L5.76837 9.375H26.2316L24.584 29.2654ZM27.25 7.5H4.75C4.23306 7.5 3.8125 7.07944 3.8125 6.5625C3.8125 6.04556 4.23306 5.625 4.75 5.625H27.25C27.7669 5.625 28.1875 6.04556 28.1875 6.5625C28.1875 7.07944 27.7669 7.5 27.25 7.5Z" fill="white"/>
<path d="M12.2483 27.2545L11.3108 12.1295C11.2787 11.6127 10.8314 11.2197 10.3171 11.2518C9.80026 11.2839 9.40732 11.7288 9.43932 12.2455L10.3768 27.3706C10.4076 27.8677 10.8204 28.2501 11.3116 28.2501C11.8546 28.2501 12.2816 27.7928 12.2483 27.2545Z" fill="white"/>
<path d="M16 11.25C15.4822 11.25 15.0625 11.6697 15.0625 12.1875V27.3125C15.0625 27.8302 15.4822 28.25 16 28.25C16.5178 28.25 16.9375 27.8302 16.9375 27.3125V12.1875C16.9375 11.6697 16.5178 11.25 16 11.25Z" fill="white"/>
<path d="M21.683 11.2518C21.1674 11.2198 20.7213 11.6127 20.6893 12.1295L19.7518 27.2545C19.7199 27.7713 20.1128 28.2161 20.6296 28.2482C21.1466 28.2802 21.5912 27.8871 21.6232 27.3705L22.5607 12.2455C22.5927 11.7287 22.1998 11.2838 21.683 11.2518Z" fill="white"/>
</svg>
