<svg width="32" height="32" viewBox="0 0 32 32" fill="none" xmlns="http://www.w3.org/2000/svg">
<g clip-path="url(#clip0_32_3881)">
<path d="M31.0625 31.9999H19.0125C18.4947 31.9999 18.075 31.5801 18.075 31.0624V23.0291C18.075 22.5113 18.4947 22.0916 19.0125 22.0916H22.0916V20.0166C22.0916 19.6788 22.2733 19.3671 22.5672 19.2008C22.8611 19.0344 23.2218 19.0389 23.5114 19.2127L28.3096 22.0916H31.0625C31.5802 22.0916 32 22.5114 32 23.0291V31.0624C32 31.5801 31.5802 31.9999 31.0625 31.9999Z" fill="#FFDC55"/>
<path d="M31.0626 22.0917H28.3098L25.0376 20.1284V32H31.0626C31.5803 32 32.0001 31.5803 32.0001 31.0625V23.0292C32.0001 22.5115 31.5803 22.0917 31.0626 22.0917Z" fill="#FFCB00"/>
<path d="M14.9959 31.9999H0.9375C0.41975 31.9999 0 31.5802 0 31.0624V23.0291C0 22.5114 0.41975 22.0916 0.9375 22.0916H4.64169L8.40837 19.2666C8.69244 19.0536 9.07256 19.0193 9.39013 19.1781C9.70775 19.3369 9.90837 19.6615 9.90837 20.0166V22.0916H14.9959C15.5136 22.0916 15.9334 22.5114 15.9334 23.0291V31.0624C15.9334 31.5802 15.5136 31.9999 14.9959 31.9999Z" fill="#00B6FF"/>
<path d="M14.9959 22.0916H9.90842V20.0166C9.90842 19.6615 9.7078 19.3369 9.39017 19.1781C9.07261 19.0193 8.69248 19.0536 8.40842 19.2666L7.9668 19.5979V31.9999H14.996C15.5137 31.9999 15.9335 31.5802 15.9335 31.0624V23.0291C15.9334 22.5114 15.5137 22.0916 14.9959 22.0916Z" fill="#4893FF"/>
<path d="M17.0042 0H31.0625C31.5803 0 32 0.41975 32 0.9375V8.97081C32 9.48856 31.5803 9.90831 31.0625 9.90831H27.3583L23.5917 12.7333C23.3076 12.9464 22.9275 12.9807 22.6099 12.8219C22.2923 12.6631 22.0917 12.3384 22.0917 11.9833V9.90831H17.0042C16.4864 9.90831 16.0667 9.48856 16.0667 8.97081V0.9375C16.0667 0.41975 16.4864 0 17.0042 0V0Z" fill="#FF7C48"/>
<path d="M31.0624 9.90831C31.5801 9.90831 31.9999 9.48856 31.9999 8.97081V0.9375C31.9999 0.41975 31.5801 0 31.0624 0H24.0332V12.4021L27.3582 9.90837H31.0624V9.90831Z" fill="#FF415B"/>
<path d="M0.9375 0H12.9875C13.5052 0 13.925 0.41975 13.925 0.9375V8.97081C13.925 9.48856 13.5052 9.90831 12.9875 9.90831H9.90831V11.9833C9.90831 12.3211 9.72662 12.6327 9.43275 12.7991C9.13888 12.9655 8.77819 12.9609 8.4885 12.7872L3.69031 9.90825H0.9375C0.41975 9.90825 0 9.4885 0 8.97075V0.9375C0 0.41975 0.41975 0 0.9375 0V0Z" fill="#F5FAFF"/>
<path d="M9.43265 12.7992C9.72653 12.6328 9.90822 12.3211 9.90822 11.9834V9.90837H12.9874C13.5052 9.90837 13.9249 9.48862 13.9249 8.97087V0.9375C13.9249 0.41975 13.5052 0 12.9874 0H6.9624V11.8716L8.4884 12.7872C8.77809 12.961 9.13878 12.9655 9.43265 12.7992Z" fill="#DFE9EE"/>
<path d="M27.0457 27.9834H23.0291C22.5113 27.9834 22.0916 27.5636 22.0916 27.0459C22.0916 26.5281 22.5113 26.1084 23.0291 26.1084H27.0457C27.5635 26.1084 27.9832 26.5281 27.9832 27.0459C27.9832 27.5636 27.5636 27.9834 27.0457 27.9834Z" fill="#FFCB00"/>
<path d="M10.9791 27.9834H4.9541C4.43635 27.9834 4.0166 27.5636 4.0166 27.0459C4.0166 26.5281 4.43635 26.1084 4.9541 26.1084H10.9791C11.4969 26.1084 11.9166 26.5281 11.9166 27.0459C11.9166 27.5636 11.4969 27.9834 10.9791 27.9834Z" fill="#4893FF"/>
<path d="M4.9541 4.0166H8.97079C9.48854 4.0166 9.90829 4.43635 9.90829 4.9541C9.90829 5.47185 9.48854 5.8916 8.97079 5.8916H4.9541C4.43635 5.8916 4.0166 5.47185 4.0166 4.9541C4.0166 4.43635 4.43629 4.0166 4.9541 4.0166Z" fill="#DFE9EE"/>
<path d="M21.0208 4.0166H27.0458C27.5635 4.0166 27.9833 4.43635 27.9833 4.9541C27.9833 5.47185 27.5635 5.8916 27.0458 5.8916H21.0208C20.503 5.8916 20.0833 5.47185 20.0833 4.9541C20.0833 4.43635 20.503 4.0166 21.0208 4.0166Z" fill="#FF415B"/>
<path d="M9.90822 4.9541C9.90822 4.43635 9.48847 4.0166 8.97072 4.0166H6.9624V5.8916H8.97072C9.48847 5.8916 9.90822 5.47185 9.90822 4.9541Z" fill="#C6D0DA"/>
<path d="M27.9832 4.9541C27.9832 4.43635 27.5635 4.0166 27.0457 4.0166H24.0332V5.8916H27.0457C27.5635 5.8916 27.9832 5.47185 27.9832 4.9541Z" fill="#C30048"/>
<path d="M11.9168 27.0459C11.9168 26.5281 11.497 26.1084 10.9793 26.1084H7.9668V27.9834H10.9793C11.497 27.9834 11.9168 27.5637 11.9168 27.0459Z" fill="#046EFF"/>
<path d="M27.9834 27.0459C27.9834 26.5281 27.5637 26.1084 27.0459 26.1084H25.0376V27.9834H27.0459C27.5637 27.9834 27.9834 27.5637 27.9834 27.0459Z" fill="#FF9D22"/>
<path d="M16 15.5645C14.8926 15.5645 13.9917 14.6635 13.9917 13.5562C13.9917 12.4488 14.8926 11.5479 16 11.5479C17.1074 11.5479 18.0083 12.4488 18.0083 13.5562C18.0083 14.6635 17.1074 15.5645 16 15.5645Z" fill="#FFE6D2"/>
<path d="M19.0125 20.452H12.9875C12.4698 20.452 12.05 20.0322 12.05 19.5145C12.05 17.3364 13.822 15.5645 16 15.5645C18.178 15.5645 19.95 17.3365 19.95 19.5145C19.95 20.0323 19.5303 20.452 19.0125 20.452Z" fill="#453D81"/>
<path d="M18.0083 13.5562C18.0083 12.4488 17.1074 11.5479 16 11.5479V15.5645C17.1074 15.5645 18.0083 14.6635 18.0083 13.5562Z" fill="#FFCDBE"/>
<path d="M19.95 19.5145C19.95 17.3364 18.1781 15.5645 16 15.5645V20.452H19.0125C19.5303 20.452 19.95 20.0323 19.95 19.5145Z" fill="#2D2755"/>
</g>
<defs>
<clipPath id="clip0_32_3881">
<rect width="32" height="32" fill="white"/>
</clipPath>
</defs>
</svg>
