<svg width="32" height="32" viewBox="0 0 32 32" fill="none" xmlns="http://www.w3.org/2000/svg">
<path d="M20.453 4.76944V3.43756C20.453 1.54206 18.911 0 17.0155 0H14.9846C13.0891 0 11.547 1.54206 11.547 3.43756V4.76937C8.12501 6.42869 5.75989 9.93794 5.75989 13.9893V29.8125C5.75989 31.0187 6.7412 32 7.94739 32H24.0525H24.0526C25.2588 32 26.2401 31.0187 26.2401 29.8125V13.9894C26.2401 9.938 23.8751 6.42881 20.453 4.76944ZM13.422 3.43756C13.422 2.57594 14.123 1.875 14.9846 1.875H17.0155C17.8771 1.875 18.578 2.57594 18.578 3.43756V4.07831C17.754 3.86381 16.89 3.74944 15.9998 3.74944C15.1097 3.74944 14.2459 3.86381 13.422 4.07825V3.43756ZM24.3651 18.5031C23.5811 17.9132 22.6071 17.563 21.5526 17.563H10.4474C9.39295 17.563 8.41889 17.9132 7.63489 18.5031V17.2728C7.63489 15.0799 8.49639 13.0704 10.0608 11.6145C11.6128 10.17 13.7221 9.3745 16 9.3745C18.2779 9.3745 20.3871 10.1701 21.9392 11.6145C23.5036 13.0704 24.3651 15.0799 24.3651 17.2728V18.5031H24.3651ZM24.3651 22.2721H7.63489V22.2505C7.63489 20.6997 8.89658 19.438 10.4474 19.438H21.5526C23.1034 19.438 24.3651 20.6997 24.3651 22.2505V22.2721H24.3651ZM7.94745 30.125C7.77514 30.125 7.63495 29.9848 7.63495 29.8125V24.1471H20.1306V26.218C20.1306 26.7358 20.5503 27.1555 21.0681 27.1555C21.5858 27.1555 22.0056 26.7358 22.0056 26.218V24.1471H24.3651V29.8125C24.3651 29.9848 24.225 30.125 24.0526 30.125H7.94745ZM23.2166 10.242C21.3164 8.4735 18.7535 7.4995 16 7.4995C13.2466 7.4995 10.6837 8.47344 8.78339 10.242C8.6142 10.3994 8.45208 10.5624 8.2962 10.7297C9.56939 7.73206 12.5431 5.62437 16.0002 5.62437C19.457 5.62437 22.4306 7.73206 23.7038 10.7297C23.548 10.5624 23.3858 10.3994 23.2166 10.242Z" fill="white"/>
</svg>
