<svg width="60" height="60" viewBox="0 0 60 60" fill="none" xmlns="http://www.w3.org/2000/svg">
<rect width="60" height="60" rx="30" fill="#FF1F3D"/>
<g clip-path="url(#clip0_18_3826)">
<path d="M22.5174 34.8145C23.8396 34.8061 24.6702 33.9755 24.6744 32.6576C24.6786 31.6532 24.6829 30.6489 24.6702 29.6446C24.6659 29.3691 24.7507 29.225 25.0092 29.153C25.5135 29.0047 26.005 28.8013 26.5136 28.6826C28.8951 28.1402 31.3022 28.0978 33.7176 28.3436C34.9169 28.4665 36.1035 28.6953 37.2349 29.1572C37.4638 29.2504 37.557 29.3691 37.557 29.6318C37.54 30.6235 37.5485 31.6151 37.5528 32.6109C37.557 33.9967 38.3706 34.8103 39.7648 34.8145C40.5573 34.8188 41.3413 34.8145 42.1337 34.8188C42.9473 34.8188 43.761 34.8273 44.5746 34.8188C45.8883 34.8018 46.7189 33.9712 46.7274 32.6576C46.7358 31.649 46.7104 30.6489 46.7358 29.6403C46.7613 28.708 46.4477 27.9113 45.8502 27.2121C44.8755 26.0764 43.6211 25.3391 42.2863 24.7331C39.5318 23.4702 36.612 22.8219 33.599 22.5634C29.5266 22.2116 25.5558 22.682 21.6953 24.0169C19.9578 24.6186 18.3094 25.3941 16.9194 26.64C15.9617 27.496 15.4023 28.5131 15.4786 29.8522C15.5295 30.7675 15.4828 31.6956 15.4871 32.6152C15.4956 33.9797 16.3219 34.8145 17.6737 34.8188C19.2883 34.823 20.9029 34.8188 22.5174 34.8145Z" fill="white"/>
</g>
<defs>
<clipPath id="clip0_18_3826">
<rect width="28.8" height="28.8" fill="white" transform="translate(50.3649 30) rotate(135)"/>
</clipPath>
</defs>
</svg>
