<svg width="29" height="29" viewBox="0 0 29 29" fill="none" xmlns="http://www.w3.org/2000/svg">
<g clip-path="url(#clip0_18_3856)">
<path d="M18.4471 3.93705C18.3869 1.75601 16.5953 0 14.4 0C12.2046 0 10.413 1.75601 10.3528 3.93705C6.47626 5.47431 3.59998 9.37676 3.59998 13.95V26.1C3.59998 27.5889 4.81104 28.8 6.29998 28.8H22.5C23.9889 28.8 25.2 27.5889 25.2 26.1V13.95C25.2 9.38723 22.3334 5.47813 18.4471 3.93705ZM14.4 1.8C15.4013 1.8 16.2516 2.45767 16.5425 3.36364C15.1437 3.08098 13.6787 3.07648 12.2574 3.36364C12.5483 2.45767 13.3986 1.8 14.4 1.8ZM21.6 22.95C21.6 24.4389 20.3889 25.65 18.9 25.65H9.89997C8.41104 25.65 7.19998 24.4389 7.19998 22.95V19.8C7.19998 18.3111 8.41104 17.1 9.89997 17.1H18.9C20.3889 17.1 21.6 18.3111 21.6 19.8V22.95ZM21.15 14.85C20.6527 14.85 20.25 14.4472 20.25 13.95C20.25 10.7241 17.6259 8.1 14.4 8.1C11.174 8.1 8.54997 10.7241 8.54997 13.95C8.54997 14.4472 8.14723 14.85 7.64998 14.85C7.15273 14.85 6.74998 14.4472 6.74998 13.95C6.74998 9.73181 10.1818 6.3 14.4 6.3C18.6182 6.3 22.05 9.73181 22.05 13.95C22.05 14.4472 21.6472 14.85 21.15 14.85Z" fill="white"/>
<path d="M18.9 18.9H9.9C9.40387 18.9 9 19.3039 9 19.8V22.95C9 23.4461 9.40387 23.85 9.9 23.85H18.9C19.3961 23.85 19.8 23.4461 19.8 22.95V19.8C19.8 19.3039 19.3961 18.9 18.9 18.9Z" fill="white"/>
<path d="M27.9 15.3H27.2812C27.1259 15.3 27 15.4259 27 15.5812V25.0321C27 25.2809 27.3015 25.4094 27.4776 25.2336C28.2941 24.4183 28.8 23.2923 28.8 22.05V16.2C28.8 15.7029 28.3971 15.3 27.9 15.3Z" fill="white"/>
<path d="M0 16.2V22.05C0 23.2923 0.505856 24.4183 1.32244 25.2337C1.4985 25.4095 1.8 25.2809 1.8 25.0321V15.5812C1.8 15.4259 1.67406 15.3 1.51875 15.3H0.9C0.402919 15.3 0 15.7029 0 16.2Z" fill="white"/>
</g>
<defs>
<clipPath id="clip0_18_3856">
<rect width="28.8" height="28.8" fill="white"/>
</clipPath>
</defs>
</svg>
