<svg width="24" height="24" viewBox="0 0 24 24" fill="none" xmlns="http://www.w3.org/2000/svg">
<path d="M11.7188 16.4531H12.2812C14.9952 16.4531 17.2031 14.2452 17.2031 11.5312V4.96875C17.2031 2.22895 14.9952 0 12.2812 0H11.7188C9.00783 0 6.80175 2.22412 6.79688 4.95975V11.5312C6.79688 14.2452 9.00483 16.4531 11.7188 16.4531ZM11.7188 1.40625H12.2812C14.0788 1.40625 15.5647 2.78072 15.7714 4.54688H14.625C14.2367 4.54688 13.9219 4.86169 13.9219 5.25C13.9219 5.63831 14.2367 5.95312 14.625 5.95312H15.7969V7.54688H13.875C13.4867 7.54688 13.1719 7.86169 13.1719 8.25C13.1719 8.63831 13.4867 8.95312 13.875 8.95312H15.7969V10.5469H14.625C14.2367 10.5469 13.9219 10.8617 13.9219 11.25C13.9219 11.6383 14.2367 11.9531 14.625 11.9531H15.7707C15.5615 13.6934 14.0769 15.0469 12.2812 15.0469H11.7188C9.92311 15.0469 8.43853 13.6934 8.22933 11.9531H9.375C9.76331 11.9531 10.0781 11.6383 10.0781 11.25C10.0781 10.8617 9.76331 10.5469 9.375 10.5469H8.20312V8.95312H10.125C10.5133 8.95312 10.8281 8.63831 10.8281 8.25C10.8281 7.86169 10.5133 7.54688 10.125 7.54688H8.20312V5.95312H9.375C9.76331 5.95312 10.0781 5.63831 10.0781 5.25C10.0781 4.86169 9.76331 4.54688 9.375 4.54688H8.22863C8.4353 2.78072 9.92119 1.40625 11.7188 1.40625Z" fill="white"/>
<path d="M20.2031 11.25C20.2031 10.8617 19.8883 10.5469 19.5 10.5469C19.1117 10.5469 18.7969 10.8617 18.7969 11.25C18.7969 14.9978 15.7478 18.0469 12 18.0469C8.2522 18.0469 5.20312 14.9978 5.20312 11.25C5.20312 10.8617 4.88831 10.5469 4.5 10.5469C4.11169 10.5469 3.79688 10.8617 3.79688 11.25C3.79688 15.5363 7.10161 19.0648 11.2969 19.4227V22.5938H7.5C7.11169 22.5938 6.79688 22.9086 6.79688 23.2969C6.79688 23.6852 7.11169 24 7.5 24H16.5C16.8883 24 17.2031 23.6852 17.2031 23.2969C17.2031 22.9086 16.8883 22.5938 16.5 22.5938H12.7031V19.4227C16.8984 19.0648 20.2031 15.5363 20.2031 11.25Z" fill="white"/>
</svg>
