<svg width="32" height="32" viewBox="0 0 32 32" fill="none" xmlns="http://www.w3.org/2000/svg">
<path d="M24 7V29.5C24 29.777 23.778 30 23.5 30H4.5C4.225 30 4 29.775 4 29.5V2.5C4 2.225 4.225 2 4.5 2H19L24 7Z" fill="#FAB400"/>
<path d="M24 14.8799V19.1199L18.89 24.2299L16.66 24.9749C16.27 25.1049 15.895 24.7299 16.025 24.3399L16.415 23.1699L16.77 22.1099L24 14.8799Z" fill="#DC9600"/>
<path d="M24 8H19C18.4475 8 18 7.5525 18 7V2H19.0015L24 6.99V8Z" fill="#DC9600"/>
<path d="M24 7H19.5C19.224 7 19 6.776 19 6.5V2L24 7Z" fill="#FAB400"/>
<path d="M21.5 15H6.5C6.224 15 6 14.776 6 14.5V11.5C6 11.224 6.224 11 6.5 11H21.5C21.776 11 22 11.224 22 11.5V14.5C22 14.776 21.776 15 21.5 15Z" fill="#F0F0F0"/>
<path d="M14.3925 9H6.5C6.224 9 6 9.224 6 9.5C6 9.776 6.224 10 6.5 10H14.3925C14.6685 10 14.8925 9.776 14.8925 9.5C14.8925 9.224 14.6685 9 14.3925 9Z" fill="#00143C"/>
<path d="M14.3925 6H6.5C6.224 6 6 6.224 6 6.5C6 6.776 6.224 7 6.5 7H14.3925C14.6685 7 14.8925 6.776 14.8925 6.5C14.8925 6.224 14.6685 6 14.3925 6Z" fill="#00143C"/>
<path d="M19.88 18L16.665 21.215L16.405 22H6.5C6.225 22 6 21.775 6 21.5V18.5C6 18.225 6.225 18 6.5 18H19.88Z" fill="#F0F0F0"/>
<path d="M26.295 15.8301L18.785 23.3351L16.665 21.2151L24.17 13.7051L26.295 15.8301Z" fill="#0A5078"/>
<path d="M18.7851 23.3348L16.5501 24.0798C16.1601 24.2098 15.7901 23.8398 15.9201 23.4498L16.4051 21.9998L16.6651 21.2148L18.7851 23.3348Z" fill="#F2C8A0"/>
<path d="M17.724 23.6899L16.5515 24.0809C16.1605 24.2114 15.789 23.8394 15.919 23.4484L16.31 22.2759L17.724 23.6899Z" fill="#00143C"/>
<path d="M27.7069 12.9999L26.9999 12.2929C26.6094 11.9024 25.9764 11.9024 25.5859 12.2929L24.8784 12.9999L26.9999 15.1214L27.7069 14.4144C28.0974 14.0234 28.0974 13.3904 27.7069 12.9999Z" fill="#C80A50"/>
<path d="M24.8772 14.4106L25.5842 15.1176L18.0773 22.6246L17.3703 21.9176L24.8772 14.4106Z" fill="#C80A50"/>
<path d="M24.8779 12.9961L26.9993 15.1174L26.2921 15.8245L24.1708 13.7032L24.8779 12.9961Z" fill="#F2C8A0"/>
<path d="M14.3925 16H6.5C6.224 16 6 16.224 6 16.5C6 16.776 6.224 17 6.5 17H14.3925C14.6685 17 14.8925 16.776 14.8925 16.5C14.8925 16.224 14.6685 16 14.3925 16Z" fill="#00143C"/>
<path d="M14.3925 24H6.5C6.224 24 6 24.224 6 24.5C6 24.776 6.224 25 6.5 25H14.3925C14.6685 25 14.8925 24.776 14.8925 24.5C14.8925 24.224 14.6685 24 14.3925 24Z" fill="#00143C"/>
</svg>
