<svg width="32" height="32" viewBox="0 0 32 32" fill="none" xmlns="http://www.w3.org/2000/svg">
<g clip-path="url(#clip0_37_4788)">
<path d="M8.33271 24.7081C6.19814 24.7081 4.29941 23.3414 3.60994 21.3067L3.56331 21.1533C3.40071 20.6145 3.33259 20.1614 3.33259 19.708V10.6169L0.0978911 21.4146C-0.318135 23.0027 0.629887 24.6493 2.2205 25.088L22.8384 30.6096C23.0958 30.6763 23.3531 30.7083 23.6065 30.7083C24.9344 30.7083 26.1478 29.8269 26.4879 28.528L27.6891 24.7081H8.33271Z" fill="#ECEFF1"/>
<path d="M31.9999 4.37434V19.7082C31.9999 21.3616 30.6532 22.7083 28.9998 22.7083H8.33259C8.19929 22.7083 8.06599 22.6948 7.94586 22.6814C6.54593 22.5083 5.45264 21.3616 5.34595 19.9482C5.33252 19.8681 5.33252 19.788 5.33252 19.7082V4.37434C5.33252 2.72098 6.67923 1.37427 8.33259 1.37427H28.9998C30.6532 1.37427 31.9999 2.72098 31.9999 4.37434Z" fill="#ECEFF1"/>
<path d="M14.6659 8.04108C14.6659 9.51377 13.472 10.7079 11.9993 10.7079C10.5264 10.7079 9.33252 9.51377 9.33252 8.04108C9.33252 6.56839 10.5264 5.37427 11.9993 5.37427C13.472 5.37427 14.6659 6.56839 14.6659 8.04108Z" fill="#FFC107"/>
<path d="M31.9998 15.9612V19.7082C31.9998 21.3615 30.6531 22.7082 28.9998 22.7082H8.33253C8.19922 22.7082 8.06592 22.6948 7.9458 22.6814L21.6795 8.94789C22.5863 8.04113 24.0795 8.04113 24.9862 8.94789L31.9998 15.9612Z" fill="#388E3C"/>
<path d="M24.0798 22.7082H8.33284C8.19953 22.7082 8.06623 22.6948 7.94611 22.6813C6.54617 22.5082 5.45288 21.3615 5.34619 19.9481L11.6796 13.6145C12.5864 12.7079 14.0796 12.7079 14.9863 13.6145L24.0798 22.7082Z" fill="#4CAF50"/>
</g>
<defs>
<clipPath id="clip0_37_4788">
<rect width="32" height="32" fill="white"/>
</clipPath>
</defs>
</svg>
