<svg width="32" height="32" viewBox="0 0 32 32" fill="none" xmlns="http://www.w3.org/2000/svg">
<path d="M25.2896 16.2597L31.57 10.4351C31.8409 10.177 31.9928 9.82897 31.9978 9.45465C32.0028 9.07897 31.8592 8.72572 31.5934 8.46015C31.3277 8.19453 30.9753 8.0514 30.5987 8.05653C30.2243 8.06178 29.8765 8.2139 29.6186 8.4849L23.8006 14.7707L25.2896 16.2597Z" fill="white"/>
<path d="M1.67039 32.0001H19.957C19.6903 31.5026 19.5391 30.9346 19.5391 30.3318C19.5391 29.729 19.6903 29.161 19.957 28.6636H1.67039C0.750511 28.6636 0.00213623 29.412 0.00213623 30.3318C0.00213623 31.2517 0.750511 32.0001 1.67039 32.0001Z" fill="white"/>
<path d="M4.31217 5.21156V3.33656C5.23205 3.33656 5.98042 2.58819 5.98042 1.66831C5.98042 0.748438 5.23211 0 4.31217 0C3.39236 0 2.64392 0.748375 2.64392 1.66825V26.7884H23.0824V28.6634C22.1625 28.6634 21.4141 29.4118 21.4141 30.3317C21.4141 31.2516 22.1625 32 23.0824 32C24.0142 32 24.7723 31.2516 24.7723 30.3318V19.2966L22.8348 21.0934C22.804 22.046 22.4197 22.9373 21.7428 23.6146C20.6003 24.758 19.4915 24.6848 18.6007 24.626C17.8425 24.5759 17.1877 24.5327 16.2579 25.0986L15.2149 25.7332L14.871 24.5618C14.8314 24.4269 13.9996 21.4816 15.8782 18.9824H5.2843V17.1074H19.0827L24.7723 10.9604V5.21156H4.31217ZM11.8604 21.3242V23.1992H5.2843V21.3242H11.8604ZM5.2843 8.67381H11.8604V10.5488H5.2843V8.67381ZM5.2843 14.7656V12.8906H20.5829V14.7656H5.2843Z" fill="white"/>
<path d="M25.6539 0H7.43762C7.70425 0.497438 7.8555 1.06544 7.8555 1.66825C7.8555 2.27106 7.70425 2.83906 7.43762 3.3365H25.6539C26.5738 3.3365 27.3222 2.58812 27.3222 1.66825C27.3222 0.748375 26.5738 0 25.6539 0Z" fill="white"/>
<path d="M22.526 16.1477L21.0292 17.7649C21.2849 17.9198 21.524 18.1064 21.7409 18.3231C21.9575 18.5396 22.144 18.7781 22.2989 19.0333L23.9139 17.5356L22.526 16.1477Z" fill="white"/>
<path d="M18.7242 22.7552C19.4906 22.8057 19.8752 22.8311 20.4165 22.2893C20.7689 21.9367 20.9629 21.4678 20.9627 20.9692C20.9626 20.4705 20.7682 20.0018 20.4156 19.6493C20.063 19.297 19.5943 19.103 19.096 19.103C19.0957 19.103 19.0956 19.103 19.0953 19.103C18.5967 19.1032 18.128 19.2975 17.7756 19.6502C16.7056 20.721 16.5051 22.0251 16.5257 22.9327C17.401 22.6678 18.1377 22.7164 18.7242 22.7552Z" fill="white"/>
</svg>
