<svg width="32" height="32" viewBox="0 0 32 32" fill="none" xmlns="http://www.w3.org/2000/svg">
<path d="M1 3.75H2.88319C3.04625 6.87925 5.64337 9.375 8.8125 9.375C11.9222 9.375 14.4811 6.97175 14.7299 3.925C15.51 3.44144 16.49 3.44144 17.2702 3.925C17.5189 6.97175 20.0777 9.375 23.1875 9.375C26.3566 9.375 28.9537 6.87925 29.1168 3.75H31C31.5177 3.75 31.9375 3.33025 31.9375 2.8125C31.9375 2.29475 31.5177 1.875 31 1.875H29.1023C28.9502 0.816375 28.0376 0 26.9375 0H19.4375C18.3343 0 17.4198 0.821062 17.2715 1.88412C16.8626 1.75744 16.4342 1.69081 16 1.69081C15.5658 1.69081 15.1374 1.75744 14.7285 1.88412C14.5803 0.821062 13.6657 0 12.5625 0H5.0625C3.96244 0 3.04981 0.816375 2.89769 1.875H1C0.48225 1.875 0.0625 2.29475 0.0625 2.8125C0.0625 3.33025 0.48225 3.75 1 3.75ZM19.125 2.1875C19.125 2.01519 19.2652 1.875 19.4375 1.875H26.9375C27.1098 1.875 27.25 2.01519 27.25 2.1875V3.4375C27.25 5.67756 25.4276 7.5 23.1875 7.5C20.9474 7.5 19.125 5.67756 19.125 3.4375V2.1875ZM4.75 2.1875C4.75 2.01519 4.89019 1.875 5.0625 1.875H12.5625C12.7348 1.875 12.875 2.01519 12.875 2.1875V3.4375C12.875 5.67756 11.0526 7.5 8.8125 7.5C6.57244 7.5 4.75 5.67756 4.75 3.4375V2.1875Z" fill="white"/>
<path d="M30.0625 16.375C29.0269 16.375 28.1875 17.2144 28.1875 18.25V22.625C28.1875 23.6606 27.3481 24.5 26.3125 24.5H23.8125V27.9375C23.8125 30.1811 25.6313 32 27.875 32C30.1187 32 31.9375 30.1811 31.9375 27.9375V18.25C31.9375 17.2144 31.0981 16.375 30.0625 16.375Z" fill="white"/>
<path d="M4.4375 17H10.0625V26.375H4.4375V17Z" fill="white"/>
<path d="M21.9375 12.3125C21.9375 11.7947 21.5177 11.375 21 11.375H1C0.48225 11.375 0.0625 11.7947 0.0625 12.3125V27.3125C0.0625 29.9013 2.16119 32 4.75 32H23.5492C22.5504 30.9371 21.9375 29.5076 21.9375 27.9375V12.3125ZM11.9375 27.3125C11.9375 27.8302 11.5177 28.25 11 28.25H3.5C2.98225 28.25 2.5625 27.8302 2.5625 27.3125V16.0625C2.5625 15.5448 2.98225 15.125 3.5 15.125H11C11.5177 15.125 11.9375 15.5448 11.9375 16.0625V27.3125ZM18.5 28.25H14.125C13.6073 28.25 13.1875 27.8302 13.1875 27.3125C13.1875 26.7948 13.6073 26.375 14.125 26.375H18.5C19.0177 26.375 19.4375 26.7948 19.4375 27.3125C19.4375 27.8302 19.0177 28.25 18.5 28.25ZM18.5 24.5H14.125C13.6073 24.5 13.1875 24.0802 13.1875 23.5625C13.1875 23.0448 13.6073 22.625 14.125 22.625H18.5C19.0177 22.625 19.4375 23.0448 19.4375 23.5625C19.4375 24.0802 19.0177 24.5 18.5 24.5ZM18.5 20.75H14.125C13.6073 20.75 13.1875 20.3302 13.1875 19.8125C13.1875 19.2948 13.6073 18.875 14.125 18.875H18.5C19.0177 18.875 19.4375 19.2948 19.4375 19.8125C19.4375 20.3302 19.0177 20.75 18.5 20.75ZM18.5 17H14.125C13.6073 17 13.1875 16.5802 13.1875 16.0625C13.1875 15.5448 13.6073 15.125 14.125 15.125H18.5C19.0177 15.125 19.4375 15.5448 19.4375 16.0625C19.4375 16.5802 19.0177 17 18.5 17Z" fill="white"/>
<path d="M26.3125 22.625V18.25C26.3125 17.5672 26.4968 16.9271 26.817 16.375H23.8125V22.625H26.3125Z" fill="white"/>
<path d="M23.1875 5.625C24.2877 5.625 25.2007 4.80869 25.3528 3.75H21.0223C21.1744 4.80869 22.0874 5.625 23.1875 5.625Z" fill="white"/>
<path d="M8.81253 5.625C9.91265 5.625 10.8257 4.80869 10.9778 3.75H6.64734C6.7994 4.80869 7.7124 5.625 8.81253 5.625Z" fill="white"/>
</svg>
