<svg width="32" height="32" viewBox="0 0 32 32" fill="none" xmlns="http://www.w3.org/2000/svg">
<path d="M9.5 19.5632V29.9367C9.92904 29.8252 10.309 29.5747 10.5805 29.2242C10.8519 28.8738 10.9994 28.4432 11 27.9999V21.4999C10.9994 21.0567 10.8519 20.6261 10.5805 20.2756C10.309 19.9252 9.92904 19.6746 9.5 19.5632Z" fill="white"/>
<path d="M5 22V27.5C5.00075 28.1628 5.26438 28.7983 5.73306 29.2669C6.20174 29.7356 6.83719 29.9993 7.5 30H8.5V19.5H7.5C6.83719 19.5007 6.20174 19.7644 5.73306 20.2331C5.26438 20.7017 5.00075 21.3372 5 22Z" fill="white"/>
<path d="M24.5 19.5H23.5V30H24.5C25.1628 29.9993 25.7983 29.7356 26.2669 29.2669C26.7356 28.7983 26.9993 28.1628 27 27.5V22C26.9993 21.3372 26.7356 20.7017 26.2669 20.2331C25.7983 19.7644 25.1628 19.5007 24.5 19.5Z" fill="white"/>
<path d="M25.8995 6.10052C23.9416 4.14258 21.447 2.80921 18.7313 2.26901C16.0155 1.72882 13.2006 2.00607 10.6424 3.06569C8.08426 4.12532 5.89776 5.91974 4.35942 8.22204C2.82108 10.5243 2 13.2311 2 16V25C2.00075 25.5761 2.20008 26.1343 2.56439 26.5805C2.92871 27.0268 3.43573 27.3337 4 27.4497V16C4 9.38321 9.38318 4.00003 16 4.00003C22.6168 4.00003 28 9.38321 28 16V27.4497C28.5643 27.3337 29.0713 27.0268 29.4356 26.5805C29.7999 26.1343 29.9993 25.5761 30 25V16C30.005 14.1608 29.6452 12.3388 28.9413 10.6395C28.2375 8.9403 27.2036 7.39752 25.8995 6.10052Z" fill="white"/>
<path d="M21 21.4999V27.9999C21.0006 28.4432 21.1481 28.8738 21.4195 29.2242C21.691 29.5747 22.071 29.8252 22.5 29.9367V19.5632C22.071 19.6746 21.691 19.9252 21.4195 20.2756C21.1481 20.6261 21.0006 21.0567 21 21.4999Z" fill="white"/>
<path d="M13.1716 16.7324L13.8787 17.4395C14.1572 17.1609 14.488 16.9399 14.8519 16.7892C15.2159 16.6384 15.606 16.5608 16 16.5608C16.394 16.5608 16.7841 16.6384 17.1481 16.7892C17.512 16.9399 17.8428 17.1609 18.1213 17.4395L18.8284 16.7324C18.0783 15.9822 17.0609 15.5608 16 15.5608C14.9391 15.5608 13.9217 15.9822 13.1716 16.7324Z" fill="white"/>
<path d="M14.5858 18.1466L15.2928 18.8537C15.4804 18.6661 15.7348 18.5608 16 18.5608C16.2652 18.5608 16.5195 18.6661 16.7071 18.8537L17.4142 18.1466C17.0391 17.7715 16.5304 17.5608 16 17.5608C15.4695 17.5608 14.9608 17.7715 14.5858 18.1466H14.5858Z" fill="white"/>
<path d="M11.7573 15.3181L12.4644 16.0252C13.4021 15.0876 14.6739 14.5608 16 14.5608C17.3261 14.5608 18.5978 15.0876 19.5355 16.0252L20.2426 15.3181C19.1174 14.1929 17.5913 13.5608 16 13.5608C14.4087 13.5608 12.8825 14.1929 11.7573 15.3181Z" fill="white"/>
</svg>
