<svg width="24" height="24" viewBox="0 0 24 24" fill="none" xmlns="http://www.w3.org/2000/svg">
<path d="M12 3C11.6022 3 11.2206 3.15804 10.9393 3.43934C10.658 3.72064 10.5 4.10218 10.5 4.5V10.5H4.5C4.10218 10.5 3.72064 10.658 3.43934 10.9393C3.15804 11.2206 3 11.6022 3 12C3 12.3978 3.15804 12.7794 3.43934 13.0607C3.72064 13.342 4.10218 13.5 4.5 13.5H10.5V19.5C10.5 19.8978 10.658 20.2794 10.9393 20.5607C11.2206 20.842 11.6022 21 12 21C12.3978 21 12.7794 20.842 13.0607 20.5607C13.342 20.2794 13.5 19.8978 13.5 19.5V13.5H19.5C19.8978 13.5 20.2794 13.342 20.5607 13.0607C20.842 12.7794 21 12.3978 21 12C21 11.6022 20.842 11.2206 20.5607 10.9393C20.2794 10.658 19.8978 10.5 19.5 10.5H13.5V4.5C13.5 4.10218 13.342 3.72064 13.0607 3.43934C12.7794 3.15804 12.3978 3 12 3Z" fill="white"/>
</svg>
