<svg width="150" height="150" viewBox="0 0 150 150" fill="none" xmlns="http://www.w3.org/2000/svg">
<g clip-path="url(#clip0_18_5908)">
<path d="M142.241 20.7666V108.621H80.1724V113.793C80.1699 114.65 79.9565 115.494 79.5511 116.25L80.1724 116.379H150V20.7666H142.241Z" fill="#00CCB3"/>
<path d="M96.8539 15.5171H80.1724V108.621H142.241V15.5171H96.8539Z" fill="#E6E7E8"/>
<path d="M147.414 28.4482V38.7931L141.336 40.0091C140.86 41.724 140.174 43.3745 139.293 44.9227L142.733 50.0686L135.413 57.3877L130.268 53.9479C128.719 54.8293 127.069 55.515 125.354 55.9911L124.138 62.0689H113.793L112.577 55.9911C110.862 55.515 109.212 54.8293 107.663 53.9479L102.518 57.3877L95.1984 50.0686L98.6383 44.9227C97.7569 43.3745 97.0712 41.724 96.5951 40.0091L90.5172 38.7931V28.4482L96.5951 27.2322C97.0712 25.5173 97.7569 23.8668 98.6383 22.3186L95.1984 17.1727L102.518 9.85355L107.663 13.2934C109.212 12.412 110.862 11.7263 112.577 11.2502L113.793 5.17236H124.138L125.354 11.2502C127.069 11.7263 128.719 12.412 130.268 13.2934L135.413 9.85355L142.733 17.1727L139.293 22.3186C140.174 23.8668 140.86 25.5173 141.336 27.2322L147.414 28.4482Z" fill="#FFA733"/>
<path d="M69.8276 113.793V108.621H7.75862V20.7666H0V116.379H69.8276L70.4489 116.25C70.0435 115.494 69.8301 114.65 69.8276 113.793Z" fill="#00CCB3"/>
<path d="M7.75862 15.5171H69.8276V108.621H7.75862V15.5171Z" fill="#E6E7E8"/>
<path d="M67.2414 129.311H124.138V139.655H67.2414V129.311Z" fill="#5AAAE7"/>
<path d="M129.31 129.311C132.163 129.319 134.474 131.63 134.483 134.483C134.461 137.331 132.158 139.634 129.31 139.655H124.138V129.311H129.31Z" fill="#3D9AE2"/>
<path d="M67.2414 129.311V139.655H64.6552L51.7241 134.483L64.6552 129.311H67.2414Z" fill="#3F70EF"/>
<path d="M12.931 137.069H28.4483C28.4483 141.354 24.9743 144.827 20.6897 144.827C16.405 144.827 12.931 141.354 12.931 137.069Z" fill="#898890"/>
<path d="M30.1291 127.008C32.2101 127.734 33.6093 129.693 33.6207 131.897C33.5992 134.744 31.2959 137.047 28.4483 137.069H12.931C10.0784 137.06 7.76746 134.749 7.75862 131.897C7.75105 130.524 8.30162 129.208 9.28408 128.25C9.83087 127.685 10.5052 127.26 11.2503 127.008C11.7907 126.82 12.359 126.724 12.931 126.724H28.4483C29.0203 126.724 29.5886 126.82 30.1291 127.008Z" fill="#ACABB1"/>
<path d="M18.1035 51.7241H59.4828V72.4138H18.1035V51.7241Z" fill="#78B9EB"/>
<path d="M131.897 33.6205C131.897 40.7616 126.107 46.5515 118.965 46.5515C111.824 46.5515 106.034 40.7616 106.034 33.6205C106.034 26.4794 111.824 20.6895 118.965 20.6895C126.107 20.6895 131.897 26.4794 131.897 33.6205Z" fill="#FF6243"/>
<path d="M80.1724 108.62V113.793C80.1724 116.649 77.8564 118.965 75 118.965C72.1435 118.965 69.8276 116.649 69.8276 113.793V20.6895H80.1724V108.62Z" fill="#FF9811"/>
<path d="M20.6897 87.9312C9.26892 87.945 0.0138885 97.2001 -2.29744e-06 108.621C-0.0037907 111.282 0.515219 113.918 1.52546 116.379C3.38682 120.975 6.83804 124.748 11.2503 127.008C11.7907 126.82 12.359 126.724 12.931 126.724H28.4483C29.0203 126.724 29.5886 126.82 30.1291 127.008C34.5413 124.748 37.9925 120.975 39.8539 116.379C40.8641 113.918 41.3831 111.282 41.3793 108.621C41.3793 97.1938 32.1167 87.9312 20.6897 87.9312Z" fill="#FFD422"/>
<path d="M15.5172 28.4482H25.8621V33.6207H15.5172V28.4482Z" fill="#ACABB1"/>
<path d="M31.0345 28.4482H62.069V33.6207H31.0345V28.4482Z" fill="#C6C5CA"/>
<path d="M15.5172 38.793H62.069V43.9654H15.5172V38.793Z" fill="#C6C5CA"/>
<path d="M36.2069 59.4829H41.3793V64.6553H36.2069V59.4829Z" fill="#3F70EF"/>
<path d="M46.5517 59.4829H51.7241V64.6553H46.5517V59.4829Z" fill="#3F70EF"/>
<path d="M25.8621 59.4829H31.0345V64.6553H25.8621V59.4829Z" fill="#3F70EF"/>
<path d="M95.6897 80.1724H131.897V85.3448H95.6897V80.1724Z" fill="#C6C5CA"/>
<path d="M95.6897 90.5171H131.897V95.6895H95.6897V90.5171Z" fill="#C6C5CA"/>
<path d="M88.1899 61.2773C86.6733 59.5902 85.2981 57.7832 84.0744 55.8726L88.4349 53.0894C89.5045 54.7626 90.7079 56.3448 92.0351 57.8198L88.1899 61.2773Z" fill="#EE8700"/>
<path d="M118.966 75C108.882 75.0076 99.1447 71.3278 91.5856 64.6552L95.009 60.7759C105.494 70.0196 120.357 72.4126 133.212 66.9257L135.251 71.6789C130.105 73.8837 124.563 75.0139 118.966 75Z" fill="#EE8700"/>
<path d="M25.8621 116.38C24.9971 116.38 24.1901 115.948 23.7103 115.229L20.6897 110.689L17.669 115.229C17.1614 115.907 16.3646 116.306 15.5172 116.306C14.6699 116.306 13.8731 115.907 13.3654 115.229L8.19302 107.47L12.4966 104.599L15.5172 109.139L18.5379 104.608C19.0455 103.928 19.8423 103.529 20.6897 103.529C21.537 103.529 22.3338 103.928 22.8415 104.608L25.8621 109.139L28.8827 104.608L33.1863 107.478L28.0139 115.237C27.5328 115.953 26.7246 116.381 25.8621 116.38Z" fill="#DDB200"/>
</g>
<defs>
<clipPath id="clip0_18_5908">
<rect width="150" height="150" fill="white"/>
</clipPath>
</defs>
</svg>
