<svg width="24" height="24" viewBox="0 0 24 24" fill="none" xmlns="http://www.w3.org/2000/svg">
<g clip-path="url(#clip0_191_2087)">
<path d="M13.8183 13.0909C16.9187 13.0909 19.4323 10.1604 19.4323 6.54549C19.4323 2.93047 18.607 0 13.8183 0C9.02963 0 8.20422 2.93047 8.20422 6.54549C8.20422 10.1604 10.7178 13.0909 13.8183 13.0909Z" fill="white"/>
<path d="M23.9122 20.7319C23.8131 15.5173 22.9965 14.0314 16.7481 13.0908C16.7481 13.0908 15.8685 14.0256 13.8184 14.0256C11.7684 14.0256 10.8886 13.0908 10.8886 13.0908C4.70838 14.0211 3.84218 15.485 3.72829 20.5625C3.71895 20.9771 3.71462 20.9989 3.71295 20.9508C3.71333 21.041 3.71379 21.2078 3.71379 21.4987C3.71379 21.4987 5.20139 23.9999 13.8184 23.9999C22.4353 23.9999 23.9231 21.4987 23.9231 21.4987C23.9231 21.3118 23.9232 21.1818 23.9235 21.0934C23.9218 21.1232 23.9185 21.0655 23.9122 20.7319Z" fill="white"/>
</g>
<defs>
<clipPath id="clip0_191_2087">
<rect width="24" height="24" fill="white"/>
</clipPath>
</defs>
</svg>
