<svg width="30" height="30" viewBox="0 0 30 30" fill="none" xmlns="http://www.w3.org/2000/svg">
<g clip-path="url(#clip0_11_3073)">
<path d="M24.2159 15.4744C24.2159 14.8984 23.7755 14.4579 23.1995 14.4579C22.6235 14.4579 22.183 14.8984 22.183 15.4744C22.183 19.4386 18.9642 22.6574 14.9999 22.6574C11.0357 22.6574 7.81688 19.4386 7.81688 15.4744C7.81688 14.8984 7.37641 14.4579 6.80041 14.4579C6.22441 14.4579 5.78394 14.8984 5.78394 15.4744C5.78394 20.184 9.3077 24.1483 13.9835 24.6565V27.3671H10.2903C9.71429 27.3671 9.27382 27.8076 9.27382 28.3836C9.27382 28.9596 9.71429 29.4 10.2903 29.4H19.7096C20.2856 29.4 20.7261 28.9596 20.7261 28.3836C20.7261 27.8076 20.2856 27.3671 19.7096 27.3671H16.0164V24.6565C20.6922 24.1483 24.2159 20.184 24.2159 15.4744Z" fill="white"/>
<path d="M15 0.600006C11.8828 0.600006 9.34167 3.14118 9.34167 6.25836V15.4405C9.34167 18.5915 11.8828 21.0988 15 21.1327C18.1172 21.1327 20.6584 18.5915 20.6584 15.4744V6.25836C20.6584 3.14118 18.1172 0.600006 15 0.600006Z" fill="white"/>
</g>
<defs>
<clipPath id="clip0_11_3073">
<rect width="28.8" height="28.8" fill="white" transform="translate(0.599976 0.600006)"/>
</clipPath>
</defs>
</svg>
