<svg width="20" height="20" viewBox="0 0 20 20" fill="none" xmlns="http://www.w3.org/2000/svg">
<g clip-path="url(#clip0_173_16)">
<path d="M0 4.18286C0 4.0171 0.065848 3.85813 0.183058 3.74092C0.300268 3.62371 0.45924 3.55786 0.625 3.55786H19.375C19.5408 3.55786 19.6997 3.62371 19.8169 3.74092C19.9342 3.85813 20 4.0171 20 4.18286C20 4.34862 19.9342 4.50759 19.8169 4.6248C19.6997 4.74201 19.5408 4.80786 19.375 4.80786H0.625C0.45924 4.80786 0.300268 4.74201 0.183058 4.6248C0.065848 4.50759 0 4.34862 0 4.18286ZM19.375 9.37501H0.625C0.45924 9.37501 0.300268 9.44086 0.183058 9.55807C0.065848 9.67528 0 9.83425 0 10C0 10.1658 0.065848 10.3247 0.183058 10.442C0.300268 10.5592 0.45924 10.625 0.625 10.625H19.375C19.5408 10.625 19.6997 10.5592 19.8169 10.442C19.9342 10.3247 20 10.1658 20 10C20 9.83425 19.9342 9.67528 19.8169 9.55807C19.6997 9.44086 19.5408 9.37501 19.375 9.37501ZM10 15.1922H0.625C0.45924 15.1922 0.300268 15.258 0.183058 15.3752C0.065848 15.4924 0 15.6514 0 15.8172C0 15.9829 0.065848 16.1419 0.183058 16.2591C0.300268 16.3763 0.45924 16.4422 0.625 16.4422H10C10.1658 16.4422 10.3247 16.3763 10.4419 16.2591C10.5592 16.1419 10.625 15.9829 10.625 15.8172C10.625 15.6514 10.5592 15.4924 10.4419 15.3752C10.3247 15.258 10.1658 15.1922 10 15.1922Z" fill="white"/>
</g>
<defs>
<clipPath id="clip0_173_16">
<rect width="20" height="20" fill="white"/>
</clipPath>
</defs>
</svg>
