<svg width="24" height="24" viewBox="0 0 24 24" fill="none" xmlns="http://www.w3.org/2000/svg">
<path d="M7.76394 2.59766C5.40969 2.59766 3.49414 4.62758 3.49414 7.12292C3.49414 9.61873 5.40969 11.6486 7.76394 11.6486C10.1182 11.6486 12.0333 9.61873 12.0333 7.12292C12.0333 4.62753 10.1182 2.59766 7.76394 2.59766ZM7.76394 10.2425C6.18491 10.2425 4.9002 8.84295 4.9002 7.12287C4.9002 5.40275 6.18491 4.00372 7.76394 4.00372C9.3425 4.00372 10.6272 5.40275 10.6272 7.12287C10.6272 8.84299 9.3425 10.2425 7.76394 10.2425Z" fill="#FF8E3D"/>
<path d="M17.3941 3.2423C15.3717 3.25917 13.7401 5.01351 13.758 7.15354C13.7664 8.1809 14.1503 9.14643 14.8378 9.87149C15.5315 10.6026 16.4506 11.0043 17.4287 11.0043H17.4583C19.4807 10.9874 21.1118 9.2331 21.0944 7.09307C21.0766 4.95305 19.4156 3.22636 17.3941 3.2423ZM17.4466 9.59826C16.8514 9.60248 16.2875 9.35643 15.8582 8.90367C15.4162 8.43778 15.1697 7.81209 15.1641 7.14182C15.1528 5.77743 16.1587 4.65867 17.4058 4.64836H17.4232C18.6624 4.64836 19.6771 5.74603 19.6883 7.10432C19.6996 8.46918 18.6938 9.58795 17.4466 9.59826Z" fill="#FF8E3D"/>
<path d="M24 18.2732C24 14.6483 21.051 11.6992 17.4261 11.6992C15.4604 11.6992 13.6929 12.5668 12.4874 13.9396C11.1779 12.9328 9.53977 12.3338 7.76437 12.3338C3.48286 12.3339 0 15.8172 0 20.0983V21.4022H15.5283V20.0983C15.5283 19.8888 15.5199 19.6811 15.5035 19.4759H24V18.2732ZM1.407 19.9961C1.46137 16.5371 4.2923 13.74 7.76437 13.74C9.23841 13.74 10.5967 14.2443 11.6766 15.0889C12.0651 15.3935 12.4171 15.7418 12.726 16.1261C13.1872 16.7012 13.5504 17.3574 13.7908 18.0698C13.9422 18.5183 14.0448 18.9889 14.0922 19.4758C14.109 19.6474 14.1189 19.8208 14.1217 19.9961H1.407ZM15.2593 18.0698C14.935 16.8718 14.3299 15.7877 13.5204 14.893C14.4686 13.7986 15.8681 13.1053 17.4261 13.1053C20.2073 13.1053 22.4828 15.3143 22.5901 18.0698H15.2593Z" fill="#FF8E3D"/>
</svg>
