<svg width="20" height="20" viewBox="0 0 20 20" fill="none" xmlns="http://www.w3.org/2000/svg">
<path d="M10.8839 10L17.817 3.06698C18.0611 2.82288 18.0611 2.42713 17.817 2.18307C17.5729 1.93901 17.1771 1.93898 16.9331 2.18307L10 9.11613L3.06698 2.18307C2.82288 1.93898 2.42713 1.93898 2.18307 2.18307C1.93901 2.42716 1.93898 2.82291 2.18307 3.06698L9.1161 10L2.18307 16.9331C1.93898 17.1772 1.93898 17.5729 2.18307 17.817C2.3051 17.939 2.46507 18 2.62504 18C2.78501 18 2.94494 17.939 3.06701 17.817L10 10.8839L16.933 17.817C17.0551 17.939 17.215 18 17.375 18C17.535 18 17.6949 17.939 17.817 17.817C18.0611 17.5729 18.0611 17.1771 17.817 16.9331L10.8839 10Z" fill="#AEB8B7"/>
</svg>
