<svg width="18" height="22" viewBox="0 0 18 22" fill="none" xmlns="http://www.w3.org/2000/svg">
<path d="M8.99969 0C9.6563 0 10.3065 0.129329 10.9131 0.380602C11.5197 0.631876 12.0709 1.00017 12.5352 1.46447C12.9995 1.92876 13.3678 2.47995 13.6191 3.08658C13.8704 3.69321 13.9997 4.34339 13.9997 5V9C13.9997 10.3261 13.4729 11.5979 12.5352 12.5355C11.5975 13.4732 10.3258 14 8.99969 14C7.6736 14 6.40184 13.4732 5.46415 12.5355C4.52647 11.5979 3.99969 10.3261 3.99969 9V5C3.99969 3.67392 4.52647 2.40215 5.46415 1.46447C6.40184 0.526784 7.6736 0 8.99969 0ZM0.0546875 10H2.06969C2.31198 11.6648 3.14556 13.1867 4.41792 14.2873C5.69028 15.3879 7.31637 15.9936 8.99869 15.9936C10.681 15.9936 12.3071 15.3879 13.5795 14.2873C14.8518 13.1867 15.6854 11.6648 15.9277 10H17.9437C17.7163 12.0287 16.8063 13.9199 15.3629 15.3635C13.9195 16.8071 12.0284 17.7174 9.99969 17.945V22H7.99969V17.945C5.97082 17.7176 4.07947 16.8074 2.63586 15.3638C1.19226 13.9202 0.2821 12.0289 0.0546875 10Z" fill="#AEB8B7"/>
</svg>
