<svg width="20" height="20" viewBox="0 0 20 20" fill="none" xmlns="http://www.w3.org/2000/svg">
<path d="M5.77778 1H3.88889C2.84439 1 2 1.84439 2 2.88889V16.1111C2 17.1556 2.84439 18 3.88889 18H5.77778C6.82227 18 7.66667 17.1556 7.66667 16.1111V2.88889C7.66667 1.84439 6.82227 1 5.77778 1Z" fill="white"/>
<path d="M15.2231 1H13.3342C12.2897 1 11.4453 1.84439 11.4453 2.88889V16.1111C11.4453 17.1556 12.2897 18 13.3342 18H15.2231C16.2676 18 17.112 17.1556 17.112 16.1111V2.88889C17.112 1.84439 16.2676 1 15.2231 1Z" fill="white"/>
</svg>
