<svg width="33" height="30" viewBox="0 0 33 30" fill="none" xmlns="http://www.w3.org/2000/svg">
<g clip-path="url(#clip0_18_3843)">
<path d="M29.0544 13.6154C29.7426 13.6154 30.3005 13.0574 30.3005 12.3692C30.3005 11.681 29.7426 11.123 29.0544 11.123C28.3661 11.123 27.8082 11.681 27.8082 12.3692C27.8082 13.0574 28.3661 13.6154 29.0544 13.6154Z" fill="white"/>
<path d="M25.7316 11.123C26.4199 11.123 26.9778 10.5651 26.9778 9.87689C26.9778 9.18866 26.4199 8.63074 25.7316 8.63074C25.0434 8.63074 24.4855 9.18866 24.4855 9.87689C24.4855 10.5651 25.0434 11.123 25.7316 11.123Z" fill="white"/>
<path d="M22.408 10.2923C23.0963 10.2923 23.6542 9.73437 23.6542 9.04614C23.6542 8.35791 23.0963 7.79999 22.408 7.79999C21.7198 7.79999 21.1619 8.35791 21.1619 9.04614C21.1619 9.73437 21.7198 10.2923 22.408 10.2923Z" fill="white"/>
<path d="M19.0848 11.9539C19.773 11.9539 20.3309 11.3959 20.3309 10.7077C20.3309 10.0195 19.773 9.46155 19.0848 9.46155C18.3965 9.46155 17.8386 10.0195 17.8386 10.7077C17.8386 11.3959 18.3965 11.9539 19.0848 11.9539Z" fill="white"/>
<path d="M27.8081 12.3692V17.7692C27.8081 17.9985 27.622 18.1846 27.3927 18.1846C27.1634 18.1846 26.9773 17.9985 26.9773 17.7692V9.87691H24.485V16.9384C24.485 17.1677 24.2989 17.3538 24.0697 17.3538C23.8404 17.3538 23.6543 17.1677 23.6543 16.9384V9.04614H21.162V16.9384C21.162 17.1677 20.9759 17.3538 20.7466 17.3538C20.5173 17.3538 20.3312 17.1677 20.3312 16.9384V10.7077H17.8389V21.0923L16.1566 18.7902C15.6581 18.0218 14.6853 17.7642 13.9725 18.2045C13.2622 18.6548 13.0861 19.6368 13.5779 20.4028C13.5779 20.4028 16.2912 24.5092 17.4476 26.2672C18.604 28.0251 20.4774 29.4 23.9808 29.4C29.7812 29.4 30.3004 24.9205 30.3004 23.5846C30.3004 22.2487 30.3004 12.3692 30.3004 12.3692H27.8081Z" fill="white"/>
</g>
<g clip-path="url(#clip1_18_3843)">
<path d="M16.2098 7.87725C15.2735 7.87725 14.5118 7.11551 14.5118 6.17922V0.600006H5.82762C4.35631 0.600006 3.1593 1.79702 3.1593 3.26833V22.7713C3.1593 24.2426 4.35631 25.4397 5.82762 25.4397H19.4118C20.8831 25.4397 22.0801 24.2426 22.0801 22.7713V7.87725H16.2098ZM7.13753 18.0654H10.6655C11.0674 18.0654 11.3933 18.3912 11.3933 18.7931C11.3933 19.195 11.0674 19.5208 10.6655 19.5208H7.13753C6.73563 19.5208 6.4098 19.195 6.4098 18.7931C6.4098 18.3912 6.73563 18.0654 7.13753 18.0654ZM6.4098 14.9119C6.4098 14.51 6.73563 14.1842 7.13753 14.1842H17.8108C18.2127 14.1842 18.5385 14.51 18.5385 14.9119C18.5385 15.3138 18.2127 15.6396 17.8108 15.6396H7.13753C6.73563 15.6396 6.4098 15.3138 6.4098 14.9119ZM17.8108 10.303C18.2127 10.303 18.5385 10.6288 18.5385 11.0307C18.5385 11.4326 18.2127 11.7584 17.8108 11.7584H7.13753C6.73563 11.7584 6.4098 11.4326 6.4098 11.0307C6.4098 10.6288 6.73563 10.303 7.13753 10.303H17.8108Z" fill="white" fill-opacity="0.6"/>
<path d="M15.9673 6.1792C15.9673 6.31296 16.0761 6.42178 16.2099 6.42178H21.7558C21.6227 6.176 21.4514 5.95026 21.2457 5.75557L16.5677 1.32994C16.3862 1.1582 16.184 1.01493 15.9673 0.901794V6.1792H15.9673Z" fill="white" fill-opacity="0.6"/>
</g>
<defs>
<clipPath id="clip0_18_3843">
<rect width="21.6" height="21.6" fill="white" transform="translate(11 7.79999)"/>
</clipPath>
<clipPath id="clip1_18_3843">
<rect width="24.8396" height="24.8396" fill="white" transform="translate(0.199951 0.600006)"/>
</clipPath>
</defs>
</svg>
