<svg width="32" height="32" viewBox="0 0 32 32" fill="none" xmlns="http://www.w3.org/2000/svg">
<path d="M29.33 8.1036C28.8766 7.85893 28.3647 7.74371 27.8502 7.77056C27.3357 7.7974 26.8385 7.96528 26.413 8.2558L21 11.8884V9C20.9991 8.20463 20.6827 7.44209 20.1203 6.87967C19.5579 6.31726 18.7954 6.0009 18 6H4C3.20463 6.0009 2.44209 6.31726 1.87967 6.87967C1.31726 7.44209 1.0009 8.20463 1 9V23C1.0009 23.7954 1.31726 24.5579 1.87967 25.1203C2.44209 25.6827 3.20463 25.9991 4 26H18C18.7954 25.9991 19.5579 25.6827 20.1203 25.1203C20.6827 24.5579 20.9991 23.7954 21 23V20.1114L26.414 23.7442C26.8385 24.0367 27.3357 24.2057 27.8505 24.2326C28.3653 24.2595 28.8774 24.1431 29.33 23.8964C29.8454 23.6102 30.2732 23.189 30.5674 22.6781C30.8616 22.1672 31.0111 21.5859 31 20.9964V11.004C31.0112 10.4145 30.8617 9.83304 30.5675 9.32206C30.2733 8.81108 29.8455 8.38986 29.33 8.1036V8.1036ZM19 23C18.9997 23.2651 18.8942 23.5193 18.7068 23.7068C18.5193 23.8942 18.2651 23.9997 18 24H4C3.73488 23.9997 3.48071 23.8942 3.29324 23.7068C3.10578 23.5193 3.00032 23.2651 3 23V9C3.00032 8.73488 3.10578 8.48071 3.29324 8.29324C3.48071 8.10578 3.73488 8.00032 4 8H18C18.2651 8.00032 18.5193 8.10578 18.7068 8.29324C18.8942 8.48071 18.9997 8.73488 19 9V23ZM29 20.996C29.0108 21.2231 28.9596 21.4489 28.8519 21.6492C28.7442 21.8494 28.5841 22.0166 28.3886 22.1328C28.2557 22.208 28.1039 22.2433 27.9514 22.2347C27.799 22.226 27.6522 22.1737 27.5286 22.084L21 17.7032V14.2968L27.5274 9.9168C27.6518 9.82839 27.7986 9.7769 27.951 9.76826C28.1033 9.75963 28.255 9.7942 28.3886 9.868C28.5839 9.98413 28.744 10.1512 28.8517 10.3513C28.9594 10.5514 29.0107 10.777 29 11.004V20.996Z" fill="white"/>
<path d="M10.95 21C10.7511 21 10.5603 20.9486 10.4197 20.857C10.279 20.7654 10.2 20.6412 10.2 20.5117V11.4883C10.2 11.3588 10.279 11.2346 10.4197 11.143C10.5603 11.0514 10.7511 11 10.95 11C11.1489 11 11.3397 11.0514 11.4803 11.143C11.621 11.2346 11.7 11.3588 11.7 11.4883V20.5117C11.7 20.6412 11.621 20.7654 11.4803 20.857C11.3397 20.9486 11.1489 21 10.95 21Z" fill="white"/>
<path d="M15.5117 16.5H6.48828C6.35878 16.5 6.23458 16.421 6.14301 16.2803C6.05144 16.1397 6 15.9489 6 15.75C6 15.5511 6.05144 15.3603 6.14301 15.2197C6.23458 15.079 6.35878 15 6.48828 15H15.5117C15.6412 15 15.7654 15.079 15.857 15.2197C15.9486 15.3603 16 15.5511 16 15.75C16 15.9489 15.9486 16.1397 15.857 16.2803C15.7654 16.421 15.6412 16.5 15.5117 16.5Z" fill="white"/>
</svg>
