<svg width="9" height="15" viewBox="0 0 9 15" fill="none" xmlns="http://www.w3.org/2000/svg">
<path d="M1.99996 14.9999C1.80133 15.0011 1.60686 14.9431 1.44134 14.8333C1.27582 14.7235 1.14675 14.5669 1.07059 14.3834C0.994419 14.2 0.974607 13.998 1.01368 13.8033C1.05275 13.6085 1.14893 13.4298 1.28996 13.2899L6.58996 7.99994L1.28996 2.70994C1.10165 2.52164 0.995865 2.26624 0.995865 1.99994C0.995865 1.86808 1.02184 1.73751 1.0723 1.61569C1.12276 1.49387 1.19672 1.38318 1.28996 1.28994C1.38319 1.1967 1.49388 1.12274 1.61571 1.07228C1.73753 1.02182 1.8681 0.99585 1.99996 0.99585C2.26626 0.99585 2.52165 1.10164 2.70996 1.28994L8.70996 7.28994C8.89621 7.4773 9.00075 7.73075 9.00075 7.99494C9.00075 8.25912 8.89621 8.51258 8.70996 8.69994L2.70996 14.6999C2.61734 14.7944 2.5069 14.8696 2.38502 14.9211C2.26315 14.9726 2.13226 14.9994 1.99996 14.9999Z" fill="#353842"/>
</svg>
