<svg width="24" height="24" viewBox="0 0 24 24" fill="none" xmlns="http://www.w3.org/2000/svg">
<path d="M22.2803 21.2198L16.836 15.7753C18.0296 14.3441 18.75 12.5051 18.75 10.5C18.75 5.95088 15.0491 2.25 10.5 2.25C5.95088 2.25 2.25 5.95088 2.25 10.5C2.25 15.0491 5.95088 18.75 10.5 18.75C12.5051 18.75 14.3441 18.0296 15.7753 16.836L21.2197 22.2804C21.3662 22.4269 21.5582 22.5002 21.75 22.5002C21.9418 22.5002 22.1338 22.4269 22.2803 22.2804C22.5733 21.9874 22.5733 21.5126 22.2803 21.2198ZM3.75 10.5C3.75 6.77813 6.77775 3.75 10.5 3.75C14.2222 3.75 17.25 6.77813 17.25 10.5C17.25 14.2219 14.2222 17.25 10.5 17.25C6.77775 17.25 3.75 14.2219 3.75 10.5Z" fill="#AEB8B7"/>
</svg>
