<svg width="25" height="24" viewBox="0 0 25 24" fill="none" xmlns="http://www.w3.org/2000/svg">
<path d="M20.3164 12.3954C20.3164 11.9154 19.9493 11.5483 19.4693 11.5483C18.9893 11.5483 18.6223 11.9154 18.6223 12.3954C18.6223 15.6989 15.9399 18.3813 12.6364 18.3813C9.33286 18.3813 6.65051 15.6989 6.65051 12.3954C6.65051 11.9154 6.28345 11.5483 5.80345 11.5483C5.32345 11.5483 4.95639 11.9154 4.95639 12.3954C4.95639 16.3201 7.89286 19.6236 11.7893 20.0472V22.306H8.71169C8.23169 22.306 7.86463 22.6731 7.86463 23.1531C7.86463 23.6331 8.23169 24.0001 8.71169 24.0001H16.5611C17.0411 24.0001 17.4082 23.6331 17.4082 23.1531C17.4082 22.6731 17.0411 22.306 16.5611 22.306H13.4835V20.0472C17.3799 19.6236 20.3164 16.3201 20.3164 12.3954Z" fill="white"/>
<path d="M12.6364 0C10.0388 0 7.92111 2.11765 7.92111 4.71529V12.3671C7.92111 14.9929 10.0388 17.0824 12.6364 17.1106C15.234 17.1106 17.3517 14.9929 17.3517 12.3953V4.71529C17.3517 2.11765 15.234 0 12.6364 0Z" fill="white"/>
</svg>
