<svg width="20" height="20" viewBox="0 0 20 20" fill="none" xmlns="http://www.w3.org/2000/svg">
<path d="M16.5186 4.26266C16.4532 4.19723 16.3867 4.13324 16.3196 4.07004L16.9669 3.29387L18.0275 4.17836L19.0282 2.97836L15.707 0.208633L14.7063 1.40863L15.7669 2.29312L15.097 3.09648C13.8125 2.24074 12.3365 1.72527 10.7812 1.59559V0H9.21875V1.59559C7.05102 1.77633 5.03707 2.70691 3.48137 4.26262C1.74016 6.00379 0.78125 8.31883 0.78125 10.7812C0.78125 13.2437 1.74016 15.5587 3.48137 17.2999C5.22254 19.0411 7.53758 20 10 20C12.4624 20 14.7775 19.0411 16.5186 17.2999C18.2598 15.5587 19.2188 13.2437 19.2188 10.7812C19.2188 8.31883 18.2598 6.00379 16.5186 4.26266ZM10 18.4375C5.77832 18.4375 2.34375 15.0029 2.34375 10.7812C2.34375 6.55957 5.77832 3.125 10 3.125C14.2217 3.125 17.6562 6.55957 17.6562 10.7812C17.6562 15.0029 14.2217 18.4375 10 18.4375Z" fill="#AEB8B7"/>
<path d="M13.1987 5.58667L10.2439 9.23792C10.1644 9.22538 10.083 9.21874 10 9.21874C9.13844 9.21874 8.4375 9.91968 8.4375 10.7812C8.4375 11.6428 9.13844 12.3437 10 12.3437C10.8616 12.3437 11.5625 11.6428 11.5625 10.7812C11.5625 10.5839 11.5254 10.3951 11.4583 10.2212L14.4133 6.5696L13.1987 5.58667Z" fill="#AEB8B7"/>
</svg>
