<svg width="32" height="32" viewBox="0 0 32 32" fill="none" xmlns="http://www.w3.org/2000/svg">
<g clip-path="url(#clip0_32_3902)">
<path d="M9.46067 3.08903L9.1445 3.13005C8.65647 3.19352 8.31223 3.64054 8.37571 4.12834L11.9287 31.5063H14.0871L10.459 3.85807C10.3955 3.37004 9.9487 3.0258 9.46067 3.08903Z" fill="#996459"/>
<path d="M10.459 3.85807C10.3955 3.37004 9.94873 3.0258 9.46069 3.08903L9.14453 3.13005C9.11694 3.13371 9.09009 3.13884 9.06348 3.14469C9.354 3.26066 9.5752 3.5258 9.61841 3.85807L13.2466 31.5063H14.0872L10.459 3.85807Z" fill="#875850"/>
<path d="M18.8078 17.0217L3.35786 19.0263C2.6335 19.1206 1.96968 18.6093 1.87544 17.8842L0.823684 9.78071C0.729446 9.05635 1.24116 8.39253 1.96553 8.29829L11.4284 7.07002L17.4155 6.29292C18.1398 6.19868 18.8037 6.7104 18.8979 7.43477L19.6909 13.5437L19.9497 15.5385C20.0439 16.2636 19.5327 16.9274 18.8078 17.0217Z" fill="#F8A28B"/>
<path d="M19.6912 13.5439L12.0518 12.552C12.011 12.5468 11.9702 12.5395 11.9307 12.531C11.8904 12.4743 11.8904 12.3964 11.9353 12.3393L13.095 10.8496C13.4045 10.4472 13.3293 9.86958 12.927 9.55952C12.5247 9.24922 11.947 9.32441 11.637 9.72676L10.9736 10.5788L11.4287 7.07002L17.4158 6.29292C18.1401 6.19868 18.804 6.71064 18.8982 7.43501L19.6912 13.5439Z" fill="#F58C79"/>
<path d="M13.8139 14.4446C13.8139 14.6448 13.7507 14.8475 13.6188 15.0181C13.318 15.4087 12.7575 15.483 12.3649 15.1841L10.8312 14.0152C10.7614 13.9617 10.6611 13.9744 10.6071 14.0442L9.42301 15.566C9.2465 15.7933 8.98185 15.9119 8.715 15.9119C8.52409 15.9119 8.33121 15.8514 8.16837 15.7254C7.75553 15.4073 7.67985 14.8106 7.99992 14.3992L9.14249 12.9319C9.19718 12.8614 9.184 12.7593 9.11295 12.7054L7.61149 11.5606C7.20914 11.2513 7.13395 10.6736 7.44425 10.2706C7.75431 9.86822 8.33195 9.79327 8.73429 10.1033L10.2458 11.2552C10.3156 11.3084 10.4157 11.296 10.4696 11.2261L10.9733 10.5787L10.9096 11.0694C10.8207 11.7537 11.2704 12.3826 11.9303 12.5308C11.9396 12.544 11.9508 12.5557 11.9638 12.5657L13.443 13.6932C13.686 13.8782 13.8139 14.1595 13.8139 14.4446Z" fill="white"/>
<path d="M22.2849 0.00790248L22.5093 0.0371993C23.0227 0.10385 23.3848 0.57382 23.3181 1.08725L19.3704 31.5062H17.2412L21.2349 0.816984C21.3013 0.303557 21.7715 -0.0587479 22.2849 0.00790248Z" fill="#996459"/>
<path d="M22.509 0.0371203L22.2847 0.00782347C22.0938 -0.0168347 21.9092 0.0178332 21.7488 0.097179C22.1365 0.252452 22.3862 0.65382 22.3301 1.08717L18.3823 31.5061H19.3701L23.3179 1.08717C23.3845 0.573741 23.0225 0.103771 22.509 0.0371203Z" fill="#875850"/>
<path d="M13.0947 10.8495L11.935 12.3393C11.8901 12.3966 11.8901 12.4743 11.9304 12.5309C11.2705 12.3827 10.8208 11.7538 10.9096 11.0695L10.9733 10.5788L11.6367 9.72672C11.9467 9.32438 12.5244 9.24918 12.9267 9.55948C13.3291 9.86954 13.4042 10.4472 13.0947 10.8495Z" fill="#EFF2FA"/>
<path d="M13.1158 11.6788L28.6993 13.7013C29.3873 13.7904 30.0171 13.3053 30.1063 12.6175L31.1753 4.37999C31.2647 3.69224 30.7796 3.06212 30.0916 2.973L14.5081 0.950543C13.8204 0.861188 13.1905 1.34654 13.1011 2.03428L12.032 10.2718C11.9429 10.9596 12.428 11.5895 13.1158 11.6788Z" fill="#FFD782"/>
<path d="M19.7202 9.99228C19.5007 9.96714 19.3005 9.85581 19.1633 9.68296L17.6105 7.72617C17.3249 7.36607 17.385 6.84239 17.7451 6.55674C18.1052 6.2711 18.6286 6.33116 18.9145 6.69126L19.9499 7.99619L23.5695 5.12364C23.9294 4.83799 24.4531 4.8983 24.7387 5.2584C25.0244 5.61827 24.9643 6.14195 24.6042 6.42759L20.3327 9.81748C20.1596 9.95469 19.9394 10.0177 19.7202 9.99228Z" fill="white"/>
<path d="M21.9321 32H9.74878C9.47607 32 9.25488 31.7788 9.25488 31.5061C9.25488 31.2332 9.47607 31.0122 9.74878 31.0122H21.9321C22.2051 31.0122 22.4263 31.2332 22.4263 31.5061C22.426 31.7788 22.2051 32 21.9321 32Z" fill="#5C546A"/>
</g>
<defs>
<clipPath id="clip0_32_3902">
<rect width="32" height="32" fill="white"/>
</clipPath>
</defs>
</svg>
