<svg width="24" height="24" viewBox="0 0 24 24" fill="none" xmlns="http://www.w3.org/2000/svg">
<g clip-path="url(#clip0_18_3446)">
<path d="M12.3281 22.125H2.89181C2.49154 22.125 2.25021 21.9016 2.14181 21.7685C1.95486 21.5385 1.88253 21.2393 1.94332 20.9473C2.91689 16.2708 7.04391 12.8558 11.8083 12.7451C11.8874 12.748 11.9669 12.75 12.0469 12.75C15.562 12.75 18.4219 9.89026 18.4219 6.375C18.4219 2.85974 15.562 0 12.0469 0C8.53164 0 5.6719 2.85974 5.6719 6.375C5.6719 8.4613 6.67934 10.3169 8.23336 11.4805C6.80972 11.9491 5.4736 12.678 4.30447 13.6397C2.16085 15.403 0.670372 17.8625 0.107689 20.5651C-0.0686418 21.412 0.142662 22.2817 0.687218 22.9515C1.22903 23.6179 2.03268 24 2.89181 24H12.3281C12.8458 24 13.2656 23.5803 13.2656 23.0625C13.2656 22.5447 12.8458 22.125 12.3281 22.125ZM7.5469 6.375C7.5469 3.89374 9.56545 1.875 12.0469 1.875C14.5282 1.875 16.5469 3.89374 16.5469 6.375C16.5469 8.82074 14.5857 10.817 12.1533 10.8737C12.1183 10.8697 12.083 10.8671 12.0469 10.8671C11.9737 10.8671 11.9006 10.8682 11.8275 10.8695C9.44772 10.7549 7.5469 8.78284 7.5469 6.375ZM24.0469 19.3116C24.0469 19.8294 23.627 20.2491 23.1094 20.2491H16.0781C15.5603 20.2491 15.1406 19.8294 15.1406 19.3116C15.1406 18.7939 15.5603 18.3741 16.0781 18.3741H23.1094C23.627 18.3741 24.0469 18.7939 24.0469 19.3116ZM16.0781 14.625H23.1094C23.627 14.625 24.0469 15.0447 24.0469 15.5625C24.0469 16.0803 23.627 16.5 23.1094 16.5H16.0781C15.5603 16.5 15.1406 16.0803 15.1406 15.5625C15.1406 15.0447 15.5603 14.625 16.0781 14.625ZM24.0469 23.0625C24.0469 23.5803 23.627 24 23.1094 24H16.0781C15.5603 24 15.1406 23.5803 15.1406 23.0625C15.1406 22.5447 15.5603 22.125 16.0781 22.125H23.1094C23.627 22.125 24.0469 22.5447 24.0469 23.0625Z" fill="white"/>
</g>
<defs>
<clipPath id="clip0_18_3446">
<rect width="24" height="24" fill="white"/>
</clipPath>
</defs>
</svg>
