<svg width="24" height="24" viewBox="0 0 24 24" fill="none" xmlns="http://www.w3.org/2000/svg">
<g clip-path="url(#clip0_18_3406)">
<path d="M23.1999 19.2149C22.7581 19.2149 22.3999 18.8568 22.3999 18.4149V5.61491C22.3999 5.17311 22.7581 4.81491 23.1999 4.81491C23.6418 4.81491 23.9999 5.17311 23.9999 5.61491V18.4149C23.9999 18.8568 23.6418 19.2149 23.1999 19.2149Z" fill="white"/>
<path d="M20 17.295C19.5581 17.295 19.2 16.9368 19.2 16.495V7.53496C19.2 7.09311 19.5581 6.73495 20 6.73495C20.4418 6.73495 20.8 7.09311 20.8 7.53496V16.495C20.8 16.9368 20.4418 17.295 20 17.295Z" fill="white"/>
<path d="M16.8 16.0149C16.3582 16.0149 16 15.6568 16 15.2149V8.81492C16 8.37312 16.3582 8.01492 16.8 8.01492C17.2419 8.01492 17.6 8.37312 17.6 8.81492V15.2149C17.6 15.6568 17.2419 16.0149 16.8 16.0149Z" fill="white"/>
<path d="M10.9075 20.7778C10.1331 20.7778 9.35944 20.5156 8.70694 20.0049C8.70379 20.0025 8.70069 20 8.69759 19.9975L4.13755 16.3175C3.9088 16.1345 3.53975 16.0149 3.2 16.0149C1.4355 16.0149 0 14.5794 0 12.8149V11.2149C0 9.45042 1.4355 8.01492 3.2 8.01492C3.59655 8.01492 3.88855 7.90641 4.20785 7.64032C4.21105 7.63762 4.2143 7.63496 4.21755 7.63231L8.77754 3.95231C8.78189 3.94876 8.78634 3.94526 8.79079 3.94181C9.83239 3.13696 11.2117 2.99641 12.3903 3.57521C13.63 4.18396 14.4 5.45601 14.4 6.89491V17.1349C14.4 18.5689 13.6354 19.8322 12.4048 20.4318C11.9286 20.6638 11.4179 20.7778 10.9075 20.7778ZM9.69774 18.7486C10.3027 19.2194 11.0521 19.311 11.704 18.9934C12.3903 18.6591 12.8 17.9643 12.8 17.135V6.89496C12.8 6.05841 12.3832 5.35431 11.6851 5.01151C11.0513 4.70026 10.338 4.77196 9.77549 5.20311L5.22755 8.87337C4.62685 9.37237 3.96355 9.61497 3.2 9.61497C2.31775 9.61497 1.6 10.3327 1.6 11.215V12.815C1.6 13.6972 2.31775 14.415 3.2 14.415C3.9017 14.415 4.62685 14.66 5.13975 15.0703L9.69774 18.7486Z" fill="white"/>
</g>
<defs>
<clipPath id="clip0_18_3406">
<rect width="24" height="24" fill="white"/>
</clipPath>
</defs>
</svg>
