<svg width="32" height="32" viewBox="0 0 32 32" fill="none" xmlns="http://www.w3.org/2000/svg">
<g clip-path="url(#clip0_32_3902)">
<path d="M9.46042 3.08879L9.14426 3.1298C8.65622 3.19328 8.31198 3.6403 8.37546 4.12809L11.9284 31.506H14.0869L10.4587 3.85783C10.3952 3.36979 9.94846 3.02555 9.46042 3.08879Z" fill="#996459"/>
<path d="M10.4587 3.85783C10.3953 3.36979 9.94849 3.02555 9.46045 3.08879L9.14429 3.1298C9.1167 3.13346 9.08984 3.13859 9.06323 3.14445C9.35376 3.26042 9.57495 3.52555 9.61816 3.85783L13.2463 31.506H14.0869L10.4587 3.85783Z" fill="#875850"/>
<path d="M18.8078 17.0217L3.35786 19.0263C2.6335 19.1206 1.96968 18.6093 1.87544 17.8842L0.823684 9.78071C0.729446 9.05635 1.24116 8.39253 1.96553 8.29829L11.4284 7.07002L17.4155 6.29292C18.1398 6.19868 18.8037 6.7104 18.8979 7.43477L19.6909 13.5437L19.9497 15.5385C20.0439 16.2636 19.5327 16.9274 18.8078 17.0217Z" fill="#F8A28B"/>
<path d="M19.6909 13.5439L12.0515 12.552C12.0107 12.5468 11.97 12.5395 11.9304 12.531C11.8901 12.4743 11.8901 12.3964 11.9351 12.3393L13.0947 10.8496C13.4043 10.4472 13.3291 9.86958 12.9268 9.55952C12.5244 9.24922 11.9468 9.32441 11.6367 9.72676L10.9734 10.5788L11.4285 7.07002L17.4155 6.29292C18.1399 6.19868 18.8037 6.71064 18.8979 7.43501L19.6909 13.5439Z" fill="#F58C79"/>
<path d="M13.8139 14.4449C13.8139 14.6451 13.7507 14.8477 13.6188 15.0184C13.318 15.409 12.7575 15.4832 12.3649 15.1844L10.8312 14.0154C10.7614 13.962 10.6611 13.9747 10.6071 14.0445L9.42301 15.5662C9.2465 15.7935 8.98185 15.9122 8.715 15.9122C8.52409 15.9122 8.33121 15.8516 8.16837 15.7256C7.75553 15.4075 7.67985 14.8108 7.99992 14.3995L9.14249 12.9322C9.19718 12.8616 9.184 12.7596 9.11295 12.7056L7.61149 11.5608C7.20914 11.2515 7.13395 10.6739 7.44425 10.2708C7.75431 9.86846 8.33195 9.79351 8.73429 10.1036L10.2458 11.2554C10.3156 11.3086 10.4157 11.2962 10.4696 11.2264L10.9733 10.5789L10.9096 11.0696C10.8207 11.754 11.2704 12.3829 11.9303 12.5311C11.9396 12.5442 11.9508 12.556 11.9638 12.566L13.443 13.6934C13.686 13.8785 13.8139 14.1597 13.8139 14.4449Z" fill="white"/>
<path d="M22.2847 0.00790248L22.509 0.0371993C23.0224 0.10385 23.3845 0.57382 23.3179 1.08725L19.3701 31.5062H17.241L21.2346 0.816984C21.301 0.303557 21.7712 -0.0587479 22.2847 0.00790248Z" fill="#996459"/>
<path d="M22.509 0.0371203L22.2847 0.00782347C22.0938 -0.0168347 21.9092 0.0178332 21.7488 0.097179C22.1365 0.252452 22.3862 0.65382 22.3301 1.08717L18.3823 31.5061H19.3701L23.3179 1.08717C23.3845 0.573741 23.0225 0.103771 22.509 0.0371203Z" fill="#875850"/>
<path d="M13.0947 10.8495L11.935 12.3393C11.8901 12.3966 11.8901 12.4743 11.9304 12.5309C11.2705 12.3827 10.8208 11.7538 10.9096 11.0695L10.9733 10.5788L11.6367 9.72672C11.9467 9.32438 12.5244 9.24918 12.9267 9.55948C13.3291 9.86954 13.4042 10.4472 13.0947 10.8495Z" fill="#EFF2FA"/>
<path d="M13.116 11.6788L28.6995 13.7013C29.3875 13.7904 30.0174 13.3053 30.1065 12.6175L31.1756 4.37999C31.2649 3.69224 30.7798 3.06212 30.0919 2.973L14.5084 0.950543C13.8206 0.861188 13.1907 1.34654 13.1014 2.03428L12.0323 10.2718C11.9432 10.9596 12.4283 11.5895 13.116 11.6788Z" fill="#FFD782"/>
<path d="M19.7202 9.99228C19.5007 9.96714 19.3005 9.85581 19.1633 9.68296L17.6105 7.72617C17.3249 7.36607 17.385 6.84239 17.7451 6.55674C18.1052 6.2711 18.6286 6.33116 18.9145 6.69126L19.9499 7.99619L23.5695 5.12364C23.9294 4.83799 24.4531 4.8983 24.7387 5.2584C25.0244 5.61827 24.9643 6.14195 24.6042 6.42759L20.3327 9.81748C20.1596 9.95469 19.9394 10.0177 19.7202 9.99228Z" fill="white"/>
<path d="M21.9319 32H9.74854C9.47583 32 9.25464 31.7788 9.25464 31.5061C9.25464 31.2332 9.47583 31.0122 9.74854 31.0122H21.9319C22.2048 31.0122 22.426 31.2332 22.426 31.5061C22.4258 31.7788 22.2048 32 21.9319 32Z" fill="#5C546A"/>
</g>
<defs>
<clipPath id="clip0_32_3902">
<rect width="32" height="32" fill="white"/>
</clipPath>
</defs>
</svg>
