<svg width="32" height="32" viewBox="0 0 32 32" fill="none" xmlns="http://www.w3.org/2000/svg">
<path fill-rule="evenodd" clip-rule="evenodd" d="M16 1H8.05128C6.04821 1 4.12779 1.79487 2.71133 3.21133C1.29487 4.62779 0.5 6.54821 0.5 8.55128V24.4487C0.5 26.4518 1.29487 28.3722 2.71133 29.7887C4.12779 31.2051 6.04821 32 8.05128 32H23.9487C25.9518 32 27.8722 31.2051 29.2887 29.7887C30.7051 28.3722 31.5 26.4518 31.5 24.4487V16.5C31.5 15.8418 30.9658 15.3077 30.3077 15.3077C29.6495 15.3077 29.1154 15.8418 29.1154 16.5V24.4487C29.1154 25.8191 28.5717 27.1338 27.6019 28.1019C26.6338 29.0717 25.3191 29.6154 23.9487 29.6154H8.05128C6.68092 29.6154 5.36621 29.0717 4.39805 28.1019C3.42831 27.1338 2.88462 25.8191 2.88462 24.4487V8.55128C2.88462 7.18092 3.42831 5.86621 4.39805 4.89805C5.36621 3.92831 6.68092 3.38462 8.05128 3.38462H16C16.6582 3.38462 17.1923 2.85046 17.1923 2.19231C17.1923 1.53415 16.6582 1 16 1Z" fill="white"/>
<path fill-rule="evenodd" clip-rule="evenodd" d="M24.502 1.81554C21.4973 4.82015 13.5025 12.815 13.5025 12.815C13.3467 12.9708 13.237 13.1679 13.1862 13.3841L11.7967 19.2693C11.7013 19.6715 11.8222 20.0944 12.1131 20.3869C12.4056 20.6778 12.8285 20.7987 13.2307 20.7033L19.1159 19.3138C19.3321 19.263 19.5292 19.1533 19.685 18.9975C19.685 18.9975 27.6799 11.0027 30.6845 7.99805C31.7719 6.91067 31.7719 5.14923 30.6845 4.06344L28.4366 1.81554C27.3508 0.728154 25.5893 0.728154 24.502 1.81554ZM26.1887 3.50067C26.3445 3.34646 26.5957 3.34646 26.7514 3.50067L28.9993 5.74856C29.1535 5.90436 29.1535 6.15554 28.9993 6.31133L18.2384 17.0723L14.5597 17.9403L15.4277 14.2616L26.1887 3.50067Z" fill="white"/>
<path fill-rule="evenodd" clip-rule="evenodd" d="M28.4366 8.55925L23.9408 4.06346C23.4751 3.59766 22.7199 3.59766 22.2541 4.06346C21.7883 4.52766 21.7883 5.28438 22.2541 5.74859L26.7515 10.246C27.2157 10.7118 27.9724 10.7118 28.4366 10.246C28.9024 9.78018 28.9024 9.02505 28.4366 8.55925Z" fill="white"/>
</svg>
