<svg width="28" height="26" viewBox="0 0 28 26" fill="none" xmlns="http://www.w3.org/2000/svg">
<path d="M23.8995 4.10052C21.9416 2.14258 19.447 0.809209 16.7313 0.269014C14.0155 -0.271181 11.2006 0.00606561 8.64243 1.06569C6.08426 2.12532 3.89776 3.91974 2.35942 6.22204C0.821079 8.52433 -4.22792e-06 11.2311 0 14V23C0.000746718 23.5761 0.200078 24.1343 0.564395 24.5805C0.928711 25.0268 1.43573 25.3337 2 25.4497V14C2 7.38321 7.38318 2.00003 14 2.00003C20.6168 2.00003 26 7.38321 26 14V25.4497C26.5643 25.3337 27.0713 25.0268 27.4356 24.5805C27.7999 24.1343 27.9993 23.5761 28 23V14C28.005 12.1608 27.6452 10.3388 26.9413 8.63955C26.2375 6.9403 25.2036 5.39752 23.8995 4.10052Z" fill="white"/>
</svg>
