<svg width="32" height="32" viewBox="0 0 32 32" fill="none" xmlns="http://www.w3.org/2000/svg">
<path d="M1 14.5H31V30H1V14.5Z" fill="#289BC3"/>
<path d="M14 23C14 22.4477 14.4477 22 15 22H17C18.1046 22 19 21.1046 19 20C19 18.8954 18.1046 18 17 18H1V30H31V24H15C14.4477 24 14 23.5523 14 23Z" fill="#00D2D2"/>
<path d="M12 23C12 21.8954 12.8954 21 14 21H15C15.5523 21 16 20.5523 16 20C16 19.4477 15.5523 19 15 19H1V30H31C31 27.2386 28.7614 25 26 25H14C12.8954 25 12 24.1046 12 23Z" fill="#FAA019"/>
<path d="M8 27H5V15.6569C5 13.6563 5.38819 11.7049 6.15375 9.85658C6.91931 8.00833 8.02475 6.35396 9.43931 4.93933L11.5606 7.06064C9.2645 9.35677 8 12.4096 8 15.6569V27Z" fill="#F04938"/>
<path d="M10 9C10.8284 9 11.5 8.32843 11.5 7.5C11.5 6.67157 10.8284 6 10 6C9.17157 6 8.5 6.67157 8.5 7.5C8.5 8.32843 9.17157 9 10 9Z" fill="#FAA019"/>
<path d="M11.5 10C12.3284 10 13 9.32843 13 8.5C13 7.67157 12.3284 7 11.5 7C10.6716 7 10 7.67157 10 8.5C10 9.32843 10.6716 10 11.5 10Z" fill="#FAA019"/>
<path d="M9 11.5C9.82843 11.5 10.5 10.8284 10.5 10C10.5 9.17157 9.82843 8.5 9 8.5C8.17157 8.5 7.5 9.17157 7.5 10C7.5 10.8284 8.17157 11.5 9 11.5Z" fill="#FFD205"/>
<path d="M11 6H10V5C10 2.23856 12.2386 0 15 0H15.5C15.7761 0 16 0.223875 16 0.5V1C16 3.76144 13.7614 6 11 6Z" fill="#0A7DA5"/>
<path d="M6 2H4.5C2.567 2 1 3.567 1 5.5C1 5.77612 1.22387 6 1.5 6H10C10 3.79087 8.20913 2 6 2Z" fill="#289BC3"/>
<path d="M14 2H15.5C17.433 2 19 3.567 19 5.5C19 5.77612 18.7761 6 18.5 6H10C10 3.79087 11.7909 2 14 2Z" fill="#289BC3"/>
<path d="M9 5H10V6C10 8.76144 7.76144 11 5 11H4.5C4.22387 11 4 10.7761 4 10.5V10C4 7.23856 6.23856 5 9 5Z" fill="#00D2D2"/>
<path d="M11 5H10V6C10 8.76144 12.2386 11 15 11H15.5C15.7761 11 16 10.7761 16 10.5V10C16 7.23856 13.7614 5 11 5Z" fill="#00D2D2"/>
<path d="M5.5 9.97525V10.5C5.5 10.6914 5.60762 10.8577 5.76562 10.9417C8.16363 10.5732 10 8.50106 10 6V5C7.47331 5.25087 5.5 7.38263 5.5 9.97525Z" fill="#289BC3"/>
<path d="M11 5H10C12.5267 5.25087 14.5 7.38263 14.5 9.97525V10.5C14.5 10.6914 14.3924 10.8577 14.2344 10.9417C14.484 10.9801 14.7397 11 15 11H15.5C15.7761 11 16 10.7761 16 10.5V10C16 7.23856 13.7614 5 11 5Z" fill="#289BC3"/>
<path d="M7.25 14.25C6.83581 14.25 6.5 14.5858 6.5 15V27H8V15C8 14.5858 7.66419 14.25 7.25 14.25Z" fill="#D6332C"/>
<path d="M14 30H1V27H11C12.6569 27 14 28.3431 14 30Z" fill="#FFD205"/>
<path d="M24.5 29C24.7761 29 25 28.7761 25 28.5C25 28.2239 24.7761 28 24.5 28C24.2239 28 24 28.2239 24 28.5C24 28.7761 24.2239 29 24.5 29Z" fill="#FFD205"/>
<path d="M23.5 27C23.7761 27 24 26.7761 24 26.5C24 26.2239 23.7761 26 23.5 26C23.2239 26 23 26.2239 23 26.5C23 26.7761 23.2239 27 23.5 27Z" fill="#FFD205"/>
<path d="M27.75 27.5C27.8881 27.5 28 27.3881 28 27.25C28 27.1119 27.8881 27 27.75 27C27.6119 27 27.5 27.1119 27.5 27.25C27.5 27.3881 27.6119 27.5 27.75 27.5Z" fill="#FFD205"/>
<path d="M22.25 29.5C22.3881 29.5 22.5 29.3881 22.5 29.25C22.5 29.1119 22.3881 29 22.25 29C22.1119 29 22 29.1119 22 29.25C22 29.3881 22.1119 29.5 22.25 29.5Z" fill="#FFD205"/>
<path d="M19.75 27C19.8881 27 20 26.8881 20 26.75C20 26.6119 19.8881 26.5 19.75 26.5C19.6119 26.5 19.5 26.6119 19.5 26.75C19.5 26.8881 19.6119 27 19.75 27Z" fill="#FFD205"/>
<path d="M15.75 27.5C15.8881 27.5 16 27.3881 16 27.25C16 27.1119 15.8881 27 15.75 27C15.6119 27 15.5 27.1119 15.5 27.25C15.5 27.3881 15.6119 27.5 15.75 27.5Z" fill="#FFD205"/>
<path d="M9.75 25.5C9.88807 25.5 10 25.3881 10 25.25C10 25.1119 9.88807 25 9.75 25C9.61193 25 9.5 25.1119 9.5 25.25C9.5 25.3881 9.61193 25.5 9.75 25.5Z" fill="#FFD205"/>
<path d="M11.75 21.5C11.8881 21.5 12 21.3881 12 21.25C12 21.1119 11.8881 21 11.75 21C11.6119 21 11.5 21.1119 11.5 21.25C11.5 21.3881 11.6119 21.5 11.75 21.5Z" fill="#FFD205"/>
<path d="M2.25 25.5C2.38807 25.5 2.5 25.3881 2.5 25.25C2.5 25.1119 2.38807 25 2.25 25C2.11193 25 2 25.1119 2 25.25C2 25.3881 2.11193 25.5 2.25 25.5Z" fill="#FFD205"/>
<path d="M3.75 20.5C3.88807 20.5 4 20.3881 4 20.25C4 20.1119 3.88807 20 3.75 20C3.61193 20 3.5 20.1119 3.5 20.25C3.5 20.3881 3.61193 20.5 3.75 20.5Z" fill="#FFD205"/>
<path d="M19.5 28.5C19.7761 28.5 20 28.2761 20 28C20 27.7239 19.7761 27.5 19.5 27.5C19.2239 27.5 19 27.7239 19 28C19 28.2761 19.2239 28.5 19.5 28.5Z" fill="#FFD205"/>
<path d="M14.5 27C14.7761 27 15 26.7761 15 26.5C15 26.2239 14.7761 26 14.5 26C14.2239 26 14 26.2239 14 26.5C14 26.7761 14.2239 27 14.5 27Z" fill="#FFD205"/>
<path d="M10.5 24C10.7761 24 11 23.7761 11 23.5C11 23.2239 10.7761 23 10.5 23C10.2239 23 10 23.2239 10 23.5C10 23.7761 10.2239 24 10.5 24Z" fill="#FFD205"/>
<path d="M9.5 21C9.77614 21 10 20.7761 10 20.5C10 20.2239 9.77614 20 9.5 20C9.22386 20 9 20.2239 9 20.5C9 20.7761 9.22386 21 9.5 21Z" fill="#FFD205"/>
<path d="M3.5 25C3.77614 25 4 24.7761 4 24.5C4 24.2239 3.77614 24 3.5 24C3.22386 24 3 24.2239 3 24.5C3 24.7761 3.22386 25 3.5 25Z" fill="#FFD205"/>
<path d="M2.5 22C2.77614 22 3 21.7761 3 21.5C3 21.2239 2.77614 21 2.5 21C2.22386 21 2 21.2239 2 21.5C2 21.7761 2.22386 22 2.5 22Z" fill="#FFD205"/>
<path d="M22.5 23C27.1944 23 31 19.1944 31 14.5C31 9.80558 27.1944 6 22.5 6C17.8056 6 14 9.80558 14 14.5C14 19.1944 17.8056 23 22.5 23Z" fill="#F04938"/>
<path d="M22.5 22C26.6421 22 30 18.6421 30 14.5C30 10.3579 26.6421 7 22.5 7C18.3579 7 15 10.3579 15 14.5C15 18.6421 18.3579 22 22.5 22Z" fill="white"/>
<path d="M26 19H19C18.7239 19 18.5 18.7761 18.5 18.5V12.9683C18.5 12.6921 18.7239 12.4683 19 12.4683H26C26.2761 12.4683 26.5 12.6921 26.5 12.9683V18.5C26.5 18.7761 26.2761 19 26 19Z" fill="#D6332C"/>
<path d="M24 19H19C18.7239 19 18.5 18.7761 18.5 18.5V12.9683C18.5 12.6921 18.7239 12.4683 19 12.4683H24C24.2761 12.4683 24.5 12.6921 24.5 12.9683V18.5C24.5 18.7761 24.2761 19 24 19Z" fill="#F04938"/>
<path d="M25.5 12.4683H24.5V11.5C24.5 10.3972 23.6028 9.5 22.5 9.5C21.3972 9.5 20.5 10.3972 20.5 11.5V12.4683H19.5V11.5C19.5 9.84581 20.8458 8.5 22.5 8.5C24.1542 8.5 25.5 9.84581 25.5 11.5V12.4683Z" fill="#289BC3"/>
<path d="M22.5 14.4683C22.5 13.9001 22.0261 13.4425 21.4519 13.4694C20.9456 13.4931 20.5283 13.9077 20.5014 14.4139C20.4806 14.8065 20.6868 15.152 21 15.3334V17.5C21 17.7761 21.2239 18 21.5 18C21.7761 18 22 17.7761 22 17.5V15.3333C22.2986 15.1604 22.5 14.8381 22.5 14.4683Z" fill="#D6332C"/>
</svg>
