<svg width="32" height="32" viewBox="0 0 32 32" fill="none" xmlns="http://www.w3.org/2000/svg">
<g clip-path="url(#clip0_32_1391)">
<path d="M18.8391 31.7431C17.9183 31.9118 16.9693 32 15.9998 32C7.39029 32 0.404712 25.0474 0.351379 16.4505C0.297918 7.8347 7.28669 0.755354 15.9024 0.702915C15.9424 0.70266 15.9823 0.702596 16.0222 0.70266C16.504 0.703362 16.8939 1.09477 16.8939 1.5765V1.594C16.8939 9.27841 23.1234 15.5079 30.8078 15.5079C31.2698 15.5079 31.6481 15.8808 31.6484 16.3429V16.3514C31.6484 20.5491 29.9956 24.3607 27.3053 27.171C27.2662 27.2118 27.2158 27.2391 27.1606 27.251C24.5163 27.823 20.1423 30.9025 19.2295 31.5729C19.1136 31.658 18.9805 31.7171 18.8391 31.7431Z" fill="#463B83"/>
<path d="M31.6489 16.3513H15.9977C15.4793 16.3513 15.0591 15.9311 15.0591 15.4127V1.64124C15.0591 1.1256 15.475 0.702956 15.9907 0.702637H16.0001C24.6427 0.702637 31.6489 7.70879 31.6489 16.3513Z" fill="#FDF061"/>
<path d="M15.0239 15.3828C15.5629 15.3828 15.9998 15.8197 15.9998 16.3587V31.9999C7.35722 31.9999 0.351074 24.9938 0.351074 16.3512C0.351074 16.348 0.351074 16.3447 0.351074 16.3415C0.351394 15.8108 0.786491 15.3828 1.31714 15.3828H15.0239Z" fill="#D60303"/>
<path d="M15.9998 0.702637V16.3513H0.351074C0.351074 7.70879 7.35722 0.702637 15.9998 0.702637Z" fill="#FD4FB6"/>
<path d="M18.8105 16.3513V15.3745C18.8105 12.9277 20.794 10.9442 23.2408 10.9442H24.604C27.0507 10.9442 29.0342 12.9277 29.0342 15.3745V16.3513H18.8105Z" fill="#D60303"/>
<path d="M21.0597 15.3518V16.3513H18.8105V15.3745C18.8105 12.9277 20.794 10.9442 23.2408 10.9442H24.453C22.5065 11.4218 21.0597 13.214 21.0597 15.3518Z" fill="#0198B0"/>
<path d="M28.9029 6.38869V6.75761C28.9029 7.267 28.4899 7.67999 27.9805 7.67999C27.4711 7.67999 27.0581 7.26706 27.0581 6.75761V6.38869C27.0581 5.87931 27.471 5.46631 27.9805 5.46631C28.4899 5.46631 28.9029 5.87931 28.9029 6.38869Z" fill="#954D3B"/>
<path d="M27.9805 4.72842V6.20419C27.9805 8.00539 26.8071 9.53251 25.1831 10.0629V11.0464C25.1831 11.7428 24.6186 12.3073 23.9222 12.3073C23.2258 12.3073 22.6613 11.7428 22.6613 11.0464V10.0629C21.4937 9.68165 20.5591 8.78527 20.1259 7.64221C20.0428 7.6668 19.9549 7.68002 19.8638 7.68002C19.3544 7.68002 18.9414 7.26709 18.9414 6.75764V6.38872C18.9414 5.87934 19.3543 5.46634 19.8638 5.46634V4.72842C19.8638 2.48702 21.6808 0.670044 23.9222 0.670044C26.1635 0.66998 27.9805 2.48702 27.9805 4.72842Z" fill="#A95947"/>
<path d="M19.4949 6.20419V6.94211C19.4949 7.24384 19.6397 7.51172 19.8637 7.68002C19.3543 7.67996 18.9414 7.26702 18.9414 6.75764V6.38872C18.9414 5.87934 19.3543 5.4664 19.8637 5.46634C19.6397 5.63458 19.4949 5.90246 19.4949 6.20419ZM20.9706 6.20419V4.72842C20.9706 2.67474 22.496 0.977397 24.4756 0.707473C24.2947 0.682818 24.1099 0.670044 23.9222 0.670044C21.6808 0.670044 19.8638 2.48708 19.8638 4.72842V6.20419C19.8638 8.44559 21.6808 10.2626 23.9222 10.2626C24.1099 10.2626 24.2947 10.2498 24.4756 10.2251C22.496 9.95521 20.9706 8.25787 20.9706 6.20419ZM24.2483 6.00855C24.161 6.09573 24.0452 6.14383 23.9222 6.14383C23.7991 6.14383 23.6833 6.0958 23.596 6.00855C23.488 5.90048 23.3128 5.90048 23.2047 6.00855C23.0966 6.11662 23.0966 6.29182 23.2047 6.39989C23.3964 6.59164 23.6512 6.69722 23.9221 6.69722C24.193 6.69722 24.4478 6.59164 24.6395 6.39989C24.7476 6.29182 24.7476 6.11662 24.6395 6.00855C24.5316 5.90048 24.3564 5.90048 24.2483 6.00855ZM25.2246 7.70014C25.1166 7.59207 24.9414 7.59207 24.8333 7.70014C24.3309 8.20256 23.5134 8.20256 23.011 7.70014C22.9029 7.59207 22.7277 7.59207 22.6196 7.70014C22.5115 7.80821 22.5115 7.98341 22.6196 8.09149C22.9787 8.45058 23.4504 8.63012 23.9221 8.63012C24.3938 8.63012 24.8655 8.45058 25.2246 8.09149C25.3328 7.98341 25.3328 7.80821 25.2246 7.70014Z" fill="#954D3B"/>
<path d="M19.8701 4.49874C19.9892 2.36419 21.7578 0.670044 23.9221 0.670044C26.0864 0.670044 27.855 2.36425 27.9741 4.49874C27.0621 3.48815 25.5868 2.83161 23.9221 2.83161C22.2574 2.83154 20.7821 3.48809 19.8701 4.49874Z" fill="#67382A"/>
<path d="M21.2699 3.4451C20.7241 3.7209 20.2486 4.07935 19.8701 4.49874C19.9892 2.36419 21.7578 0.670044 23.9221 0.670044C24.1258 0.670044 24.326 0.685054 24.5217 0.714052C22.9953 0.939968 21.7459 2.01583 21.2699 3.4451Z" fill="#533022"/>
<path d="M13.8243 5.84208C13.8243 9.06858 11.2087 11.6842 7.98221 11.6842C4.7557 11.6842 2.14014 9.06858 2.14014 5.84208C2.14014 2.61557 4.75564 0 7.98214 0C11.2086 0 13.8243 2.61557 13.8243 5.84208Z" fill="#463B83"/>
<path d="M9.20453 11.5561C8.81031 11.64 8.4014 11.6842 7.9822 11.6842C4.7557 11.6842 2.14014 9.06854 2.14014 5.84209C2.14014 3.52589 3.48803 1.52452 5.44226 0.57959C4.53515 1.69621 3.96203 3.16207 3.96203 4.76731C3.96203 8.04843 6.40712 10.6386 9.22963 11.0717C9.42495 11.1017 9.71288 11.4478 9.20453 11.5561Z" fill="#012D4E"/>
<path d="M13.0943 15.4149V16.3514H2.87061V15.4149C2.87061 12.968 4.8541 10.9846 7.30085 10.9846H8.66402C11.1108 10.9846 13.0943 12.968 13.0943 15.4149Z" fill="#FDF061"/>
<path d="M4.86425 15.4149V16.3514H2.87061V15.4149C2.87061 12.968 4.85409 10.9846 7.30084 10.9846H8.664C8.76996 10.9846 8.8751 10.9883 8.97921 10.9957C6.67962 11.1573 4.86425 13.0741 4.86425 15.4149Z" fill="#FDCB6B"/>
<path d="M12.9629 6.42763V6.79655C12.9629 7.30594 12.55 7.71893 12.0405 7.71893C11.5311 7.71893 11.1182 7.306 11.1182 6.79655V6.42763C11.1182 5.91825 11.5311 5.50525 12.0405 5.50525C12.55 5.50525 12.9629 5.91818 12.9629 6.42763Z" fill="#D89C56"/>
<path d="M12.0406 4.76736V6.24313C12.0406 8.04432 10.8672 9.57144 9.24313 10.1018V11.0853C9.24313 11.7817 8.67856 12.3462 7.98223 12.3462C7.28583 12.3462 6.72132 11.7817 6.72132 11.0853V10.1018C5.5538 9.72059 4.61916 8.8242 4.18598 7.68115C4.10288 7.70574 4.01493 7.71896 3.92384 7.71896C3.41446 7.71896 3.00146 7.30603 3.00146 6.79658V6.42766C3.00146 5.91827 3.4144 5.50528 3.92384 5.50528V4.76736C3.92384 2.52596 5.74088 0.708984 7.98223 0.708984C10.2236 0.708984 12.0406 2.52602 12.0406 4.76736Z" fill="#E3AC6E"/>
<path d="M3.55492 6.24319V6.98111C3.55492 7.28284 3.69978 7.55072 3.92378 7.71902C3.4144 7.71896 3.00146 7.30603 3.00146 6.79664V6.42772C3.00146 5.91834 3.4144 5.5054 3.92378 5.50534C3.69978 5.67358 3.55492 5.94146 3.55492 6.24319ZM5.03069 6.24319V4.76736C5.03069 2.71368 6.55609 1.01634 8.53568 0.746413C8.35473 0.721759 8.17001 0.708984 7.98229 0.708984C5.74088 0.708984 3.92391 2.52602 3.92391 4.76736V6.24313C3.92391 8.48453 5.74088 10.3015 7.98229 10.3015C8.17001 10.3015 8.35479 10.2887 8.53568 10.2641C6.55609 9.99421 5.03069 8.29681 5.03069 6.24319ZM8.30836 6.04749C8.22111 6.13467 8.10531 6.18277 7.98223 6.18277C7.85914 6.18277 7.74334 6.13474 7.65609 6.04749C7.54802 5.93942 7.37282 5.93942 7.26475 6.04749C7.15668 6.15556 7.15668 6.33076 7.26475 6.43883C7.45649 6.63058 7.71128 6.73616 7.98216 6.73616C8.25305 6.73616 8.50783 6.63058 8.69958 6.43883C8.80765 6.33076 8.80765 6.15556 8.69958 6.04749C8.59163 5.93948 8.41643 5.93948 8.30836 6.04749ZM9.28477 7.73914C9.1767 7.63107 9.0015 7.63107 8.89343 7.73914C8.39101 8.24156 7.57351 8.24156 7.07109 7.73914C6.96302 7.63107 6.78781 7.63107 6.67974 7.73914C6.57167 7.84721 6.57167 8.02242 6.67974 8.13049C7.03883 8.48958 7.51053 8.66912 7.98223 8.66912C8.45392 8.66912 8.92562 8.48958 9.28471 8.13049C9.39285 8.02242 9.39285 7.84721 9.28477 7.73914Z" fill="#D89C56"/>
<path d="M8.76365 2.51619L8.58378 3.71532C8.56833 3.81841 8.47973 3.89474 8.3755 3.89474H4.01807C4.27956 2.00661 6.04058 0.581177 7.98236 0.581177C9.92421 0.581177 11.9467 2.08645 11.9467 3.89468H10.0113C9.93149 3.89468 9.85855 3.84958 9.82284 3.77824L9.16036 2.45321C9.12465 2.38186 9.05171 2.33677 8.97193 2.33677C8.86769 2.33677 8.7791 2.41303 8.76365 2.51619Z" fill="#463B83"/>
<path d="M22.1696 5.55856C21.864 5.55856 21.6162 5.3108 21.6162 5.00517C21.6162 4.69954 21.864 4.45178 22.1696 4.45178C22.4752 4.45178 22.723 4.69954 22.723 5.00517C22.723 5.3108 22.4752 5.55856 22.1696 5.55856ZM26.228 5.00517C26.228 4.69954 25.9802 4.45178 25.6746 4.45178C25.369 4.45178 25.1212 4.69954 25.1212 5.00517C25.1212 5.3108 25.369 5.55856 25.6746 5.55856C25.9802 5.55856 26.228 5.3108 26.228 5.00517ZM6.22966 4.49068C5.92403 4.49068 5.67627 4.73844 5.67627 5.04407C5.67627 5.34969 5.92403 5.59745 6.22966 5.59745C6.53529 5.59745 6.78305 5.34969 6.78305 5.04407C6.78305 4.73844 6.53529 4.49068 6.22966 4.49068ZM10.288 5.04413C10.288 5.34976 10.0403 5.59752 9.73465 5.59752C9.42902 5.59752 9.18126 5.34976 9.18126 5.04413C9.18126 4.7385 9.42902 4.49074 9.73465 4.49074C10.0403 4.49068 10.288 4.73844 10.288 5.04413Z" fill="#533022"/>
<path d="M12.4123 19.7596V26.4811C12.4123 26.8338 12.1264 27.1198 11.7736 27.1198H4.19048C3.83771 27.1198 3.55176 26.8338 3.55176 26.4811V19.7596C3.55176 17.3128 5.53525 15.3293 7.982 15.3293C10.4288 15.3293 12.4123 17.3128 12.4123 19.7596Z" fill="#FCF6E7"/>
<path d="M5.78728 27.1198H4.19048C3.83771 27.1198 3.55176 26.8338 3.55176 26.4811V19.7596C3.55176 17.3128 5.53524 15.3293 7.98199 15.3293C8.2546 15.3293 8.52139 15.354 8.78039 15.4011C6.71471 15.7771 5.14856 17.5854 5.14856 19.7596V26.4811C5.14856 26.8338 5.43452 27.1198 5.78728 27.1198Z" fill="#FCF498"/>
<path d="M13.094 30.6649V31.7308C9.79596 31.1115 6.86288 29.4575 4.64453 27.1188C5.38462 26.5636 6.30419 26.2346 7.3006 26.2346H8.66376C11.1105 26.2346 13.094 28.2182 13.094 30.6649Z" fill="#013F69"/>
<path d="M13.0941 31.0261C10.785 30.1366 8.72895 28.686 7.07178 26.8293C7.3737 26.5886 7.70545 26.3879 8.06014 26.2346H8.66386C11.1106 26.2346 13.0941 28.2181 13.0941 30.6648V31.0261Z" fill="#463B83"/>
<path d="M12.9629 21.6791V22.048C12.9629 22.5574 12.55 22.9704 12.0405 22.9704C11.5312 22.9704 11.1182 22.5575 11.1182 22.048V21.6791C11.1182 21.1697 11.5311 20.7567 12.0405 20.7567C12.5499 20.7568 12.9629 21.1697 12.9629 21.6791Z" fill="#E1A595"/>
<path d="M12.0406 20.0188V21.4946C12.0406 23.2958 10.8672 24.8229 9.24313 25.3533V26.3368C9.24313 27.0332 8.67863 27.5977 7.98223 27.5977C7.28583 27.5977 6.72132 27.0332 6.72132 26.3368V25.3533C5.5538 24.972 4.61916 24.0757 4.18598 22.9326C4.10288 22.9572 4.01493 22.9704 3.92384 22.9704C3.41446 22.9704 3.00146 22.5575 3.00146 22.048V21.6791C3.00146 21.1697 3.4144 20.7567 3.92384 20.7567V20.0188C3.92384 17.7774 5.74088 15.9604 7.98223 15.9604C10.2236 15.9604 12.0406 17.7774 12.0406 20.0188Z" fill="#EAC0B5"/>
<path d="M3.55492 21.4946V22.2325C3.55492 22.5342 3.69978 22.8021 3.92378 22.9704C3.4144 22.9704 3.00146 22.5574 3.00146 22.048V21.6791C3.00146 21.1697 3.4144 20.7568 3.92378 20.7567C3.69978 20.925 3.55492 21.1929 3.55492 21.4946ZM5.03069 21.4946V20.0188C5.03069 17.9651 6.55609 16.2678 8.53568 15.9979C8.35473 15.9732 8.17001 15.9604 7.98229 15.9604C5.74088 15.9604 3.92391 17.7775 3.92391 20.0188V21.4946C3.92391 23.736 5.74088 25.553 7.98229 25.553C8.17001 25.553 8.35479 25.5402 8.53568 25.5155C6.55609 25.2456 5.03069 23.5483 5.03069 21.4946ZM8.30836 21.2989C8.22111 21.3861 8.10531 21.4342 7.98223 21.4342C7.85914 21.4342 7.74334 21.3862 7.65609 21.2989C7.54802 21.1909 7.37282 21.1909 7.26475 21.2989C7.15668 21.407 7.15668 21.5822 7.26475 21.6903C7.45649 21.882 7.71128 21.9876 7.98216 21.9876C8.25305 21.9876 8.50783 21.882 8.69958 21.6903C8.80765 21.5822 8.80765 21.407 8.69958 21.2989C8.59163 21.1909 8.41643 21.1909 8.30836 21.2989ZM9.28477 22.9906C9.1767 22.8825 9.0015 22.8825 8.89343 22.9906C8.39101 23.493 7.57351 23.493 7.07109 22.9906C6.96302 22.8825 6.78781 22.8825 6.67974 22.9906C6.57167 23.0987 6.57167 23.2739 6.67974 23.3819C7.03883 23.741 7.51053 23.9206 7.98223 23.9206C8.45392 23.9206 8.92562 23.741 9.28471 23.3819C9.39285 23.2738 9.39285 23.0986 9.28477 22.9906Z" fill="#E1A595"/>
<path d="M11.9255 19.1461C10.928 19.1461 10.0557 18.6104 9.58045 17.8111C8.7998 18.6333 7.69622 19.1461 6.47287 19.1461C5.64458 19.1461 4.87121 18.9111 4.21582 18.504C4.49251 17.0298 7.08962 15.6965 7.98211 15.641C9.92389 15.641 12.0405 17.2934 11.9464 19.146C11.9394 19.146 11.9325 19.1461 11.9255 19.1461Z" fill="#FCF6E7"/>
<path d="M5.22059 18.9602C4.86368 18.8512 4.52649 18.697 4.21582 18.5041C4.21582 17.0492 6.24459 15.6626 7.9427 15.6414C6.54486 16.1972 5.49684 17.4441 5.22059 18.9602Z" fill="#FCF498"/>
<path d="M24.604 26.2346C25.6253 26.2346 26.566 26.5803 27.3153 27.161C25.306 29.525 22.2756 31.2496 18.8105 31.7484V30.6649C18.8105 28.2182 20.794 26.2347 23.2408 26.2347H24.604V26.2346Z" fill="#0ED1B2"/>
<path d="M20.8691 31.2958C20.2042 31.4942 19.5165 31.6467 18.8105 31.7483V30.6649C18.8105 28.2181 20.794 26.2346 23.2408 26.2346H23.9726C22.1651 26.8685 20.869 28.5897 20.869 30.6138V31.2958H20.8691Z" fill="#0AB59E"/>
<path d="M28.3527 15.6504V19.0978C28.3527 19.2751 28.209 19.4188 28.0317 19.4188H19.8132C19.6359 19.4188 19.4922 19.2751 19.4922 19.0978C19.4922 17.0165 21.1794 15.3293 23.2606 15.3293H28.0317C28.2089 15.3293 28.3527 15.4731 28.3527 15.6504Z" fill="#F4AA39"/>
<path d="M28.9029 21.6791V22.048C28.9029 22.5574 28.4899 22.9704 27.9805 22.9704C27.4711 22.9704 27.0581 22.5575 27.0581 22.048V21.6791C27.0581 21.1697 27.471 20.7567 27.9805 20.7567C28.4899 20.7567 28.9029 21.1697 28.9029 21.6791Z" fill="#F3D6AC"/>
<path d="M27.9805 20.0188V21.4946C27.9805 23.2958 26.8071 24.8229 25.1831 25.3533V26.3368C25.1831 27.0332 24.6186 27.5977 23.9222 27.5977C23.2258 27.5977 22.6613 27.0331 22.6613 26.3368V25.3533C21.4937 24.972 20.5591 24.0757 20.1259 22.9326C20.0428 22.9572 19.9549 22.9704 19.8638 22.9704C19.3544 22.9704 18.9414 22.5575 18.9414 22.048V21.6791C18.9414 21.1697 19.3543 20.7567 19.8638 20.7567V20.0188C19.8638 17.7774 21.6808 15.9604 23.9222 15.9604C26.1635 15.9604 27.9805 17.7774 27.9805 20.0188Z" fill="#F8E6CC"/>
<path d="M19.4949 21.4946V22.2325C19.4949 22.5342 19.6397 22.8021 19.8637 22.9704C19.3543 22.9704 18.9414 22.5574 18.9414 22.048V21.6791C18.9414 21.1697 19.3543 20.7568 19.8637 20.7567C19.6397 20.925 19.4949 21.1929 19.4949 21.4946ZM20.9706 21.4946V20.0188C20.9706 17.9651 22.496 16.2678 24.4756 15.9979C24.2947 15.9732 24.11 15.9604 23.9222 15.9604C21.6808 15.9604 19.8638 17.7775 19.8638 20.0188V21.4946C19.8638 23.736 21.6808 25.553 23.9222 25.553C24.11 25.553 24.2947 25.5402 24.4756 25.5155C22.496 25.2456 20.9706 23.5483 20.9706 21.4946Z" fill="#F3D6AC"/>
<path d="M23.2048 21.6903C23.0967 21.5822 23.0967 21.407 23.2048 21.2989C23.3128 21.1909 23.488 21.1909 23.5961 21.2989C23.6834 21.3861 23.7992 21.4342 23.9222 21.4342C24.0453 21.4342 24.1611 21.3862 24.2484 21.2989C24.3564 21.1909 24.5316 21.1909 24.6397 21.2989C24.7478 21.407 24.7478 21.5822 24.6397 21.6903C24.448 21.882 24.1932 21.9876 23.9223 21.9876C23.6513 21.9877 23.3965 21.8821 23.2048 21.6903ZM25.2247 22.9906C25.1166 22.8825 24.9414 22.8825 24.8333 22.9906C24.3309 23.493 23.5134 23.493 23.011 22.9906C22.9029 22.8825 22.7277 22.8825 22.6196 22.9906C22.5116 23.0987 22.5116 23.2739 22.6196 23.3819C22.9787 23.741 23.4504 23.9206 23.9221 23.9206C24.3938 23.9206 24.8655 23.741 25.2246 23.3819C25.3328 23.2739 25.3328 23.0987 25.2247 22.9906Z" fill="#EAC0B5"/>
<path d="M27.9253 19.3462C27.1394 19.1956 26.4341 18.8184 25.8799 18.2853C25.2995 18.6055 24.6322 18.7877 23.9224 18.7877C23.2126 18.7877 22.5453 18.6055 21.9648 18.2853C21.4107 18.8185 20.7053 19.1956 19.9194 19.3462C19.9194 17.4371 21.9101 15.641 23.9224 15.641C25.9347 15.641 27.9808 17.2295 27.9253 19.3462Z" fill="#F4AA39"/>
<path d="M23.6164 15.3293C21.078 16.35 21.5211 18.6575 21.125 18.9077C20.7807 19.1251 20.1511 19.3581 19.9081 19.4188C19.8598 19.4308 19.7758 19.4172 19.7579 19.414C19.607 19.3879 19.4922 19.2562 19.4922 19.0978C19.4922 17.0165 21.1794 15.3293 23.2607 15.3293H23.6164Z" fill="#FC9302"/>
<path d="M6.22966 20.849C5.92403 20.849 5.67627 20.6013 5.67627 20.2956C5.67627 19.99 5.92403 19.7422 6.22966 19.7422C6.53529 19.7422 6.78305 19.99 6.78305 20.2956C6.78305 20.6012 6.53529 20.849 6.22966 20.849ZM10.288 20.2956C10.288 19.99 10.0403 19.7422 9.73465 19.7422C9.42902 19.7422 9.18126 19.99 9.18126 20.2956C9.18126 20.6012 9.42902 20.849 9.73465 20.849C10.0403 20.849 10.288 20.6012 10.288 20.2956ZM22.723 20.2956C22.723 19.99 22.4752 19.7422 22.1696 19.7422C21.864 19.7422 21.6162 19.99 21.6162 20.2956C21.6162 20.6012 21.864 20.849 22.1696 20.849C22.4752 20.849 22.723 20.6012 22.723 20.2956ZM26.228 20.2956C26.228 19.99 25.9802 19.7422 25.6746 19.7422C25.369 19.7422 25.1212 19.99 25.1212 20.2956C25.1212 20.6012 25.369 20.849 25.6746 20.849C25.9802 20.849 26.228 20.6012 26.228 20.2956Z" fill="#463B83"/>
<path d="M22.5384 4.45166C22.6913 4.45166 22.8151 4.57557 22.8151 4.72835C22.8151 4.88114 22.6912 5.00505 22.5384 5.00505C22.3856 5.00505 22.2617 4.88114 22.2617 4.72835C22.2617 4.57557 22.3856 4.45166 22.5384 4.45166ZM25.7667 4.72842C25.7667 4.88127 25.8906 5.00511 26.0434 5.00511C26.1963 5.00511 26.3201 4.8812 26.3201 4.72842C26.3201 4.57564 26.1962 4.45172 26.0434 4.45172C25.8906 4.45166 25.7667 4.57557 25.7667 4.72842ZM6.32178 4.76732C6.32178 4.92016 6.44569 5.04401 6.59847 5.04401C6.75132 5.04401 6.87517 4.9201 6.87517 4.76732C6.87517 4.61453 6.75125 4.49062 6.59847 4.49062C6.44569 4.49062 6.32178 4.61453 6.32178 4.76732ZM10.1035 4.49062C10.2563 4.49062 10.3802 4.61453 10.3802 4.76732C10.3802 4.9201 10.2562 5.04401 10.1035 5.04401C9.95062 5.04401 9.82677 4.9201 9.82677 4.76732C9.82677 4.61453 9.95068 4.49062 10.1035 4.49062ZM6.32178 20.0188C6.32178 20.1717 6.44569 20.2955 6.59847 20.2955C6.75125 20.2955 6.87517 20.1716 6.87517 20.0188C6.87517 19.866 6.75125 19.7421 6.59847 19.7421C6.44569 19.7421 6.32178 19.866 6.32178 20.0188ZM9.82677 20.0188C9.82677 20.1717 9.95068 20.2955 10.1035 20.2955C10.2562 20.2955 10.3802 20.1716 10.3802 20.0188C10.3802 19.866 10.2562 19.7421 10.1035 19.7421C9.95068 19.7421 9.82677 19.866 9.82677 20.0188ZM22.2617 20.0188C22.2617 20.1717 22.3856 20.2955 22.5384 20.2955C22.6913 20.2955 22.8151 20.1716 22.8151 20.0188C22.8151 19.866 22.6912 19.7421 22.5384 19.7421C22.3856 19.7421 22.2617 19.866 22.2617 20.0188ZM25.7667 20.0188C25.7667 20.1717 25.8906 20.2955 26.0434 20.2955C26.1963 20.2955 26.3201 20.1716 26.3201 20.0188C26.3201 19.866 26.1962 19.7421 26.0434 19.7421C25.8906 19.7421 25.7667 19.866 25.7667 20.0188Z" fill="#FFF5F5"/>
</g>
<defs>
<clipPath id="clip0_32_1391">
<rect width="32" height="32" fill="white"/>
</clipPath>
</defs>
</svg>
