<svg width="32" height="32" viewBox="0 0 32 32" fill="none" xmlns="http://www.w3.org/2000/svg">
<path d="M11.7317 21.4834L11.8911 19.3201L11.6582 16.1575C11.0655 14.8618 9.75906 13.9504 8.22561 13.9504C6.03299 13.9504 4.30203 15.8135 4.46316 18.0002L4.71976 21.4834C4.85501 23.3198 7.11893 24.5925 8.22561 24.5925C9.33255 24.5925 11.5965 23.3198 11.7317 21.4834Z" fill="#FFDECF"/>
<path d="M11.6582 16.1575C11.2078 15.1726 10.3445 14.4102 9.28271 14.1008C9.48169 14.3467 9.65039 14.6174 9.7832 14.9075L10.0161 18.0701L9.85693 20.2334C9.72168 22.0698 7.45752 23.3425 6.35083 23.3425C6.1106 23.3425 5.81567 23.2825 5.5 23.1697C6.29468 24.0527 7.50537 24.5925 8.22583 24.5925C9.33252 24.5925 11.5967 23.3198 11.7319 21.4834L11.8911 19.3201L11.6582 16.1575Z" fill="#FCB19F"/>
<path d="M20.2058 21.4834L20.0464 19.3201L20.2793 16.1575C20.8721 14.8618 22.1785 13.9504 23.7119 13.9504C25.9045 13.9504 27.6355 15.8135 27.4744 18.0002L27.2178 21.4834C27.0825 23.3198 24.8186 24.5925 23.7119 24.5925C22.605 24.5925 20.3411 23.3198 20.2058 21.4834Z" fill="#FFDECF"/>
<path d="M4.57178 21.0598H4.68848L4.51196 18.6633H3.87793C3.43213 18.6633 3.0708 19.0249 3.0708 19.4707V19.5588C3.0708 20.3879 3.74268 21.0598 4.57178 21.0598Z" fill="#FCB19F"/>
<path d="M20.1736 19.4187H20.0393L20.2424 16.6609H20.9719C21.4849 16.6609 21.9009 17.0769 21.9009 17.5898V17.6914C21.9006 18.6453 21.1274 19.4187 20.1736 19.4187Z" fill="#FCB19F"/>
<path d="M11.7639 19.4187H11.8984L11.6953 16.6609H10.9656C10.4526 16.6609 10.0366 17.0769 10.0366 17.5898V17.6914C10.0369 18.6453 10.8101 19.4187 11.7639 19.4187Z" fill="#FFDECF"/>
<path d="M7.00659 27.1294C7.00659 25.6907 8.17285 24.5244 9.61157 24.5244H10.147V23.8679C9.47339 24.3286 8.72974 24.5925 8.22583 24.5925C7.72192 24.5925 6.97803 24.3286 6.30444 23.8679V25.1729C6.30444 25.3518 6.15942 25.4968 5.98047 25.4968H2.70142C1.45117 25.4968 0.4375 26.5103 0.4375 27.7605V31.731C0.4375 31.8794 0.557861 32 0.706543 32H7.00659V27.1294Z" fill="#40C1FA"/>
<path d="M27.3657 21.0598H27.249L27.4255 18.6633H28.0593C28.5054 18.6633 28.8667 19.0249 28.8667 19.4707V19.5588C28.8667 20.3879 28.1948 21.0598 27.3657 21.0598Z" fill="#FCB19F"/>
<path d="M24.9309 27.1294C24.9309 25.6907 23.7646 24.5244 22.3259 24.5244H21.7905V23.8679C22.4641 24.3286 23.2078 24.5925 23.7117 24.5925C24.2156 24.5925 24.9595 24.3286 25.6331 23.8679V25.1729C25.6331 25.3518 25.7781 25.4968 25.957 25.4968H29.2361C30.4863 25.4968 31.5 26.5103 31.5 27.7605V31.731C31.5 31.8794 31.3794 32 31.231 32H24.9309V27.1294Z" fill="#FFD508"/>
<path d="M22.3259 24.5244H18.5525C18.3467 24.5244 18.1797 24.3574 18.1797 24.1516V22.6499C17.4045 23.1802 16.5486 23.4839 15.9688 23.4839C15.3889 23.4839 14.533 23.1802 13.7578 22.6499V24.1516C13.7578 24.3574 13.5908 24.5244 13.385 24.5244H9.61157C8.17285 24.5244 7.00659 25.6907 7.00659 27.1294V32H24.9309V27.1294C24.9309 25.6907 23.7646 24.5244 22.3259 24.5244Z" fill="#72E4A0"/>
<path d="M8.22583 24.5925C7.72192 24.5925 6.97803 24.3286 6.30444 23.8679V25.1729C6.30444 25.3518 6.15942 25.4968 5.98047 25.4968H4.53467C4.51636 25.6216 4.50659 25.7493 4.50659 25.8794V27.7241C4.50659 29.3953 3.15186 30.75 1.48071 30.75H0.4375V31.731C0.4375 31.8796 0.557861 32 0.706543 32H7.00659V27.1294C7.00659 25.6907 8.17285 24.5244 9.61157 24.5244H10.147V23.8679C9.47339 24.3286 8.72974 24.5925 8.22583 24.5925Z" fill="#0691CE"/>
<path d="M29.2361 25.4968H28.7603C28.9133 25.8018 29 26.146 29 26.5107V27.7244C29 29.3953 27.6453 30.75 25.9744 30.75H24.9309V32H31.231C31.3796 32 31.5 31.8796 31.5 31.731V27.7607C31.5 26.5103 30.4863 25.4968 29.2361 25.4968Z" fill="#DDB907"/>
<path d="M22.3259 24.5244H22.051C22.292 24.9192 22.4309 25.3831 22.4309 25.8794V27.7244C22.4309 29.3953 21.0762 30.75 19.4053 30.75H7.00659V32H24.9309V27.1294C24.9309 25.6907 23.7646 24.5244 22.3259 24.5244Z" fill="#62C389"/>
<path d="M15.9687 23.4839C14.6951 23.4839 12.0898 22.0193 11.9343 19.906L11.6392 15.8979C11.4539 13.3813 13.4455 11.2375 15.9687 11.2375C18.4919 11.2375 20.4839 13.3813 20.2983 15.8979L20.0032 19.906C19.8476 22.0193 17.2424 23.4839 15.9687 23.4839Z" fill="#FFDECF"/>
<path d="M24.7698 14.1018C25.3503 14.8191 25.6728 15.7505 25.5994 16.7502L25.3428 20.2334C25.2075 22.0698 22.9436 23.3425 21.8369 23.3425C21.5967 23.3425 21.3015 23.2825 20.9858 23.1697C21.7808 24.0527 22.9912 24.5925 23.7119 24.5925C24.8186 24.5925 27.0825 23.3198 27.2178 21.4834L27.4743 18.0002C27.6084 16.1804 26.4319 14.5862 24.7698 14.1018Z" fill="#FCB19F"/>
<path d="M17.3533 11.4634C18.0938 12.3054 18.5129 13.4326 18.4233 14.6477L18.1282 18.656C17.9727 20.7693 15.3674 22.2336 14.0938 22.2336C13.7756 22.2336 13.3743 22.1423 12.9487 21.9722C13.8618 22.9138 15.1743 23.4836 15.9688 23.4836C17.2424 23.4836 19.8477 22.0193 20.0032 19.906L20.2983 15.8977C20.4482 13.8652 19.1772 12.0764 17.3533 11.4634Z" fill="#FCB19F"/>
<path d="M7.0066 27.1294C7.0066 25.6907 8.17286 24.5244 9.61158 24.5244H10.147V23.8679C9.47339 24.3286 8.72974 24.5925 8.22583 24.5925C7.72193 24.5925 6.97803 24.3289 6.30445 23.8679V25.1729C6.30445 25.3518 6.15943 25.4968 5.98047 25.4968H5.65845C5.65674 26.4753 6.20264 27.3264 7.0066 27.7612V27.1294Z" fill="#FAA68E"/>
<path d="M24.9309 27.1294C24.9309 25.6907 23.7646 24.5244 22.3259 24.5244H21.7905V23.8679C22.4641 24.3286 23.2078 24.5925 23.7117 24.5925C24.2156 24.5925 24.9595 24.3289 25.6331 23.8679V25.1729C25.6331 25.3518 25.7781 25.4968 25.957 25.4968H26.2791C26.2808 26.4753 25.7349 27.3264 24.9309 27.7612V27.1294Z" fill="#FAA68E"/>
<path d="M15.9688 27.4839C17.6021 27.4839 18.926 26.1584 18.9231 24.5244H18.5525C18.3467 24.5244 18.1797 24.3577 18.1797 24.1516V22.6499C17.4046 23.1802 16.5486 23.4839 15.9688 23.4839C15.3889 23.4839 14.533 23.1802 13.7578 22.6499V24.1516C13.7578 24.3574 13.5908 24.5244 13.385 24.5244H13.0144C13.0115 26.1584 14.3355 27.4839 15.9688 27.4839Z" fill="#FAA68E"/>
<path d="M24.9919 0H6.94556C6.08252 0 5.38037 0.702148 5.38037 1.56543V6.21191C5.38037 7.07495 6.08252 7.7771 6.94556 7.7771H9.00977V9.06104C9.00977 9.25073 9.12402 9.42163 9.29907 9.49414C9.47412 9.56689 9.67603 9.52661 9.81006 9.39258L11.4253 7.7771H14.3816L15.5981 9.34814C15.6868 9.46265 15.8237 9.52979 15.9688 9.52979C16.1138 9.52979 16.2505 9.46265 16.3394 9.34814L17.5559 7.7771H20.512L22.1274 9.39258C22.217 9.48218 22.3369 9.52979 22.459 9.52979C22.5193 9.52979 22.5803 9.51807 22.6384 9.49414C22.8135 9.42163 22.9277 9.25073 22.9277 9.06104V7.7771H24.9917C25.855 7.7771 26.5571 7.07495 26.5571 6.21191V1.56543C26.5571 0.702148 25.855 0 24.9919 0Z" fill="#DCE6EB"/>
<path d="M24.9919 0H24.0254C24.0461 0.101807 24.0571 0.207275 24.0571 0.31543V4.96191C24.0571 5.82495 23.355 6.5271 22.4919 6.5271H5.41235C5.55859 7.23975 6.19043 7.7771 6.9458 7.7771H9.00977V9.06104C9.00977 9.25073 9.12402 9.42163 9.29907 9.49414C9.47437 9.56689 9.67603 9.52661 9.81006 9.39258L11.4253 7.7771H14.3816L15.5981 9.34814C15.6868 9.46265 15.8237 9.52979 15.9688 9.52979C16.1138 9.52979 16.2505 9.46265 16.3394 9.34814L17.5559 7.7771H20.5122L22.1274 9.39258C22.2173 9.48218 22.3372 9.52979 22.459 9.52979C22.5195 9.52979 22.5803 9.51807 22.6384 9.49414C22.8135 9.42163 22.9277 9.25073 22.9277 9.06104V7.7771H24.9919C25.855 7.7771 26.5571 7.07495 26.5571 6.21191V1.56543C26.5571 0.702148 25.855 0 24.9919 0Z" fill="#B9C3CD"/>
<path d="M16.8289 3.72021C16.8289 4.19531 16.4438 4.58032 15.9688 4.58032C15.4937 4.58032 15.1086 4.19531 15.1086 3.72021C15.1086 3.24512 15.4937 2.86011 15.9688 2.86011C16.4438 2.86011 16.8289 3.24512 16.8289 3.72021Z" fill="#5F6C75"/>
<path d="M12.1589 3.72021C12.1589 4.19531 11.7739 4.58032 11.2988 4.58032C10.8237 4.58032 10.4387 4.19531 10.4387 3.72021C10.4387 3.24512 10.8237 2.86011 11.2988 2.86011C11.7739 2.86011 12.1589 3.24512 12.1589 3.72021Z" fill="#5F6C75"/>
<path d="M21.4988 3.72021C21.4988 4.19531 21.1138 4.58032 20.6387 4.58032C20.1636 4.58032 19.7786 4.19531 19.7786 3.72021C19.7786 3.24512 20.1636 2.86011 20.6387 2.86011C21.1138 2.86011 21.4988 3.24512 21.4988 3.72021Z" fill="#5F6C75"/>
<path d="M3.1604 28.8982C2.90161 28.8982 2.69165 29.1079 2.69165 29.3669V32H3.62915V29.3669C3.62915 29.1079 3.41943 28.8982 3.1604 28.8982Z" fill="#0691CE"/>
<path d="M2.69165 30.4971V32H3.62915V29.8545C3.36206 30.1238 3.04443 30.343 2.69165 30.4971Z" fill="#057AAD"/>
<path d="M28.7771 28.8982C28.5181 28.8982 28.3083 29.1079 28.3083 29.3669V32H29.2458V29.3669C29.2458 29.1079 29.0359 28.8982 28.7771 28.8982Z" fill="#DDB907"/>
<path d="M28.7771 28.8982C28.7725 28.8982 28.7681 28.8987 28.7634 28.8989C28.6484 29.1719 28.4944 29.4246 28.3083 29.6499V32H29.2458V29.3669C29.2458 29.1079 29.0359 28.8982 28.7771 28.8982Z" fill="#CCAA06"/>
<path d="M22.2664 28.9778V32H21.3289V28.9778C21.3289 28.719 21.5386 28.509 21.7976 28.509C22.0564 28.509 22.2664 28.719 22.2664 28.9778ZM10.1399 28.509C9.8811 28.509 9.67114 28.719 9.67114 28.9778V32H10.6086V28.9778C10.6086 28.719 10.3989 28.509 10.1399 28.509Z" fill="#62C389"/>
<path d="M10.6086 30.75V32H9.67114V30.75H10.6086ZM22.2322 28.803C22.0435 29.2971 21.7297 29.7292 21.3289 30.0601V32H22.2664V28.9778C22.2664 28.916 22.2539 28.8572 22.2322 28.803Z" fill="#59B37D"/>
<path d="M4.46314 17.999L4.61646 20.0798C5.15235 19.8677 5.56836 19.4185 5.73487 18.8613C5.78101 18.7073 5.93482 18.6108 6.09424 18.6318C6.24292 18.6516 6.39453 18.6619 6.54859 18.6619C8.46924 18.6619 10.0261 17.105 10.0261 15.1843C10.0261 14.8987 9.99146 14.6208 9.92652 14.3552C9.41626 14.0967 8.83863 13.9504 8.22461 13.9504C6.03247 13.9504 4.30225 15.8127 4.46314 17.999Z" fill="#F76937"/>
<path d="M10.073 17.3347C10.1841 16.9458 10.5413 16.6609 10.9656 16.6609H11.6953L11.6584 16.1611C11.3035 15.3826 10.6912 14.7424 9.92627 14.355C9.99146 14.6208 10.0264 14.8984 10.0264 15.1843C10.0264 15.7297 9.90039 16.2456 9.67676 16.7051C9.78613 16.9297 9.91992 17.1404 10.073 17.3347Z" fill="#D1462A"/>
<path d="M21.0159 11.2375H15.9687C13.4456 11.2375 11.4539 13.3813 11.6392 15.8979L11.8513 18.7815C12.5281 18.6138 13.0276 17.9966 13.0142 17.2649C13.0041 16.7241 13.074 16.1851 13.1851 15.6558L13.3394 14.9207C13.4612 14.3401 13.8921 13.8899 14.438 14.2209C14.8889 14.4941 15.3979 14.6562 15.9253 14.6562H16.0124C16.5395 14.6562 17.0488 14.4941 17.4995 14.2209C18.0457 13.8899 18.4766 14.3401 18.5984 14.9207L18.7524 15.6555C18.8635 16.1851 18.9333 16.7241 18.9236 17.2649C18.9099 17.9966 19.4094 18.6138 20.0862 18.7815L20.2986 15.8977C20.3523 15.1697 20.2229 14.4729 19.9517 13.8501C19.9128 13.7612 19.977 13.6619 20.074 13.6619C20.8608 13.6619 21.4988 13.0242 21.4988 12.2371V11.7205C21.4988 11.4539 21.2825 11.2375 21.0159 11.2375Z" fill="#FFD508"/>
<path d="M21.0159 11.2375H18.9763C18.8579 11.905 18.2754 12.4121 17.574 12.4121C17.4771 12.4121 17.4129 12.5112 17.4514 12.6001C17.6553 13.0684 17.7791 13.5781 17.8052 14.1118C18.2022 14.0713 18.5003 14.4536 18.5982 14.9207L18.7525 15.6555C18.8635 16.1851 18.9334 16.7241 18.9234 17.2649C18.9099 17.9966 19.4094 18.6138 20.0862 18.7815L20.2984 15.8977C20.3521 15.1687 20.2224 14.4709 19.9505 13.8477C19.9116 13.7585 19.9771 13.6619 20.074 13.6619C20.8609 13.6619 21.4988 13.0239 21.4988 12.2371V11.7205C21.4988 11.4539 21.2825 11.2375 21.0159 11.2375Z" fill="#DDB907"/>
<path d="M28.9229 15.7676C28.6038 15.571 28.4387 15.2068 28.5017 14.8372C28.5242 14.7063 28.5313 14.5701 28.5215 14.4307C28.4629 13.5974 27.7827 12.9224 26.949 12.8696C26.7835 12.8594 26.6226 12.8728 26.4693 12.9072C26.116 12.9863 25.7481 12.8298 25.5535 12.5242C25.1773 11.9341 24.5174 11.5427 23.7656 11.5427C23.0139 11.5427 22.3538 11.9341 21.9778 12.5242C21.8311 12.7546 21.5857 12.9001 21.3223 12.9241C21.0799 13.3638 20.6118 13.6619 20.074 13.6619C19.9771 13.6619 19.9129 13.7612 19.9517 13.8501C20.2229 14.4729 20.3521 15.1697 20.2986 15.8977L20.2424 16.6609H20.9719C21.1775 16.6609 21.367 16.7285 21.5208 16.8416C21.7232 16.6812 21.9961 16.6138 22.2666 16.686C23.2156 16.9392 24.2188 16.9043 25.1736 16.6736L25.1751 16.6731C25.6384 16.561 26.103 16.853 26.2034 17.3191L26.5364 18.8652C26.6785 19.5251 26.9273 20.1575 27.2727 20.7373L27.3655 19.4785C27.3982 19.033 27.7583 18.6882 28.2039 18.6602C28.21 18.6599 28.2163 18.6594 28.2224 18.6589C28.9844 18.6025 29.6033 17.9863 29.6626 17.2246C29.7102 16.6099 29.4024 16.063 28.9229 15.7676Z" fill="#909BA6"/>
<path d="M28.9229 15.7676C28.6038 15.571 28.4387 15.2068 28.5017 14.8372C28.5242 14.7063 28.5313 14.5701 28.5215 14.4307C28.4629 13.5974 27.7827 12.9224 26.949 12.8696C26.7835 12.8594 26.6226 12.8728 26.4692 12.9072C26.2986 12.9456 26.1245 12.9282 25.9683 12.8662C25.9956 12.9678 26.0139 13.0728 26.0215 13.1807C26.0313 13.3201 26.0242 13.4563 26.0017 13.5872C25.9387 13.9568 26.1038 14.321 26.4229 14.5176C26.9023 14.813 27.2102 15.3599 27.1626 15.9746C27.1162 16.5698 26.7275 17.0747 26.1968 17.2947C26.1987 17.3027 26.2014 17.3108 26.2034 17.3191L26.5361 18.8652C26.6782 19.5251 26.927 20.1575 27.2727 20.7373L27.3655 19.4785C27.3982 19.033 27.7581 18.6882 28.2039 18.6602C28.21 18.6599 28.2161 18.6594 28.2222 18.6589C28.9841 18.6025 29.6033 17.9863 29.6624 17.2246C29.7102 16.6099 29.4024 16.063 28.9229 15.7676Z" fill="#5F6C75"/>
</svg>
