<svg width="178" height="217" viewBox="0 0 178 217" fill="none" xmlns="http://www.w3.org/2000/svg">
<path d="M0 113C0 50.5918 50.5918 0 113 0H178V144C178 184.317 145.317 217 105 217H0V113Z" fill="#2F3136"/>
<path d="M119.621 172H98.293C93.6728 172 89.9141 168.241 89.9141 163.621V152.38L82.9663 145.432C82.3127 144.779 82.1173 143.796 82.4709 142.942C82.8246 142.088 83.6579 141.531 84.582 141.531H90.2308C91.2279 138.018 94.4647 135.437 98.293 135.437H119.621C124.241 135.437 128 139.196 128 143.816V163.621C128 168.241 124.241 172 119.621 172Z" fill="#DCF0FF"/>
<path d="M119.621 135.438H108.957V172H119.621C124.241 172 128 168.241 128 163.621V143.816C128 139.196 124.241 135.438 119.621 135.438Z" fill="#BEDCF0"/>
<path d="M123.054 152.124H95.2429C94.5447 152.124 93.9787 151.558 93.9787 150.86C93.9787 150.162 94.5447 149.596 95.2429 149.596H123.054C123.752 149.596 124.318 150.162 124.318 150.86C124.318 151.558 123.752 152.124 123.054 152.124Z" fill="#5D6787"/>
<path d="M123.054 158.023H95.2429C94.5447 158.023 93.9787 157.457 93.9787 156.759C93.9787 156.061 94.5447 155.495 95.2429 155.495H123.054C123.752 155.495 124.318 156.061 124.318 156.759C124.318 157.457 123.752 158.023 123.054 158.023Z" fill="#5D6787"/>
<path d="M124.318 150.86C124.318 150.162 123.752 149.596 123.054 149.596H109.148V152.124H123.054C123.752 152.124 124.318 151.558 124.318 150.86Z" fill="#445064"/>
<path d="M123.054 155.495H109.148V158.023H123.054C123.752 158.023 124.318 157.457 124.318 156.759C124.318 156.061 123.752 155.495 123.054 155.495Z" fill="#445064"/>
<path d="M79.707 130.562H58.3789C53.7588 130.562 50 126.804 50 122.184V102.379C50 97.7588 53.7588 94 58.3789 94H79.707C83.5353 94 86.7721 96.5806 87.7692 100.094H93.418C94.3422 100.094 95.1756 100.651 95.5291 101.504C95.8827 102.358 95.6873 103.341 95.0337 103.995L88.0859 110.943V122.184C88.0859 126.804 84.3272 130.562 79.707 130.562Z" fill="#DCF0FF"/>
<path d="M95.5291 101.504C95.1756 100.651 94.3422 100.094 93.418 100.094H87.7692C86.7721 96.5806 83.5353 94 79.707 94H69.043V130.562H79.707C84.3272 130.562 88.0859 126.804 88.0859 122.184V110.943L95.0337 103.995C95.6873 103.341 95.8829 102.358 95.5291 101.504Z" fill="#BEDCF0"/>
<path d="M82.7539 172H52.2852C51.0231 172 50 170.977 50 169.715C50 160.055 57.8593 152.195 67.5195 152.195C77.1798 152.195 85.0391 160.055 85.0391 169.715C85.0391 170.977 84.0159 172 82.7539 172Z" fill="#49ACFF"/>
<path d="M67.5195 152.195V172H82.7539C84.0159 172 85.0391 170.977 85.0391 169.715C85.0391 160.055 77.1798 152.195 67.5195 152.195Z" fill="#1790E7"/>
<path d="M67.5195 156.766C61.6392 156.766 56.8555 151.982 56.8555 146.102C56.8555 140.221 61.6392 135.438 67.5195 135.438C73.3998 135.438 78.1836 140.221 78.1836 146.102C78.1836 151.982 73.3998 156.766 67.5195 156.766Z" fill="#FFD5B6"/>
<path d="M67.5195 135.438V156.766C73.3998 156.766 78.1836 151.982 78.1836 146.102C78.1836 140.221 73.3998 135.438 67.5195 135.438Z" fill="#FFC896"/>
<path d="M125.715 130.562H95.2461C93.9841 130.562 92.9609 129.539 92.9609 128.277C92.9609 118.617 100.82 110.758 110.48 110.758C120.141 110.758 128 118.617 128 128.277C128 129.539 126.977 130.562 125.715 130.562Z" fill="#AADC1E"/>
<path d="M110.48 110.758V130.562H125.715C126.977 130.562 128 129.539 128 128.277C128 118.617 120.141 110.758 110.48 110.758Z" fill="#8CC314"/>
<path d="M110.48 115.328C104.6 115.328 99.8164 110.544 99.8164 104.664C99.8164 98.7839 104.6 94 110.48 94C116.361 94 121.145 98.7839 121.145 104.664C121.145 110.544 116.361 115.328 110.48 115.328Z" fill="#FFD5B6"/>
<path d="M110.48 94V115.328C116.361 115.328 121.145 110.544 121.145 104.664C121.145 98.7839 116.361 94 110.48 94Z" fill="#FFC896"/>
<path d="M83.2239 109.805H55.4131C54.7149 109.805 54.1489 109.239 54.1489 108.541C54.1489 107.843 54.7149 107.277 55.4131 107.277H83.2239C83.922 107.277 84.488 107.843 84.488 108.541C84.488 109.239 83.922 109.805 83.2239 109.805Z" fill="#5D6787"/>
<path d="M83.2239 115.704H55.4131C54.7149 115.704 54.1489 115.138 54.1489 114.44C54.1489 113.742 54.7149 113.176 55.4131 113.176H83.2239C83.922 113.176 84.488 113.742 84.488 114.44C84.488 115.138 83.922 115.704 83.2239 115.704Z" fill="#5D6787"/>
<path d="M84.488 108.541C84.488 107.843 83.922 107.277 83.2239 107.277H69.3185V109.805H83.2239C83.922 109.805 84.488 109.239 84.488 108.541Z" fill="#445064"/>
<path d="M83.2239 113.176H69.3185V115.704H83.2239C83.922 115.704 84.488 115.138 84.488 114.44C84.488 113.742 83.922 113.176 83.2239 113.176Z" fill="#445064"/>
</svg>
