<svg width="32" height="32" viewBox="0 0 32 32" fill="none" xmlns="http://www.w3.org/2000/svg">
<path d="M13.5 32H18.5C19.1904 32 19.75 31.4404 19.75 30.75C19.75 30.0596 19.1904 29.5 18.5 29.5H13.5C12.8096 29.5 12.25 30.0596 12.25 30.75C12.25 31.4404 12.8096 32 13.5 32Z" fill="white"/>
<path d="M16 0C15.3096 0 14.75 0.559625 14.75 1.25V2.58969C10.5153 3.19806 7.25 6.84963 7.25 11.25V18.9347C7.25 19.3752 7.05156 19.776 6.75631 19.932C5.51875 20.5854 4.75 21.8568 4.75 23.25C4.75 25.3177 6.43225 27 8.5 27H23.5C25.5677 27 27.25 25.3177 27.25 23.25C27.25 21.8568 26.4812 20.5854 25.2437 19.932C24.9484 19.7761 24.75 19.3753 24.75 18.9347V11.25C24.75 6.84963 21.4847 3.19806 17.25 2.58969V1.25C17.25 0.559625 16.6904 0 16 0V0ZM22.25 11.25V18.9347C22.25 20.3186 22.9498 21.5478 24.0764 22.1427C24.4919 22.3621 24.75 22.7864 24.75 23.25C24.75 23.9393 24.1893 24.5 23.5 24.5H8.5C7.81075 24.5 7.25 23.9393 7.25 23.25C7.25 22.7864 7.50813 22.3621 7.92362 22.1427C9.05019 21.5478 9.75 20.3186 9.75 18.9347V11.25C9.75 7.80375 12.5538 5 16 5C19.4462 5 22.25 7.80375 22.25 11.25Z" fill="white"/>
</svg>
